<svg id="Layer_1" data-name="Layer 1" xmlns="http://www.w3.org/2000/svg" viewBox="0 0 84.88 85.96"><title>givingTreee</title><path d="M42.65,12.45a2.69,2.69,0,0,0-2,1.15,4.93,4.93,0,0,0-.79,1.67,16.11,16.11,0,0,0-.66,3.51c0,.64,0,1.29,0,1.94a7,7,0,0,0,0,.79,6,6,0,0,0,.13.83c.07.37.16.75.25,1.12a1.31,1.31,0,0,0,1.12.93,1.81,1.81,0,0,1,.92.6.87.87,0,0,1,.17.33.53.53,0,0,1-.65.69,5.47,5.47,0,0,0-.8-.1c-.72,0-1.44,0-2.15,0a3.93,3.93,0,0,0-.84.18l-.74.17a.67.67,0,0,1-.72-.95c.1-.19.23-.36.33-.54a1.4,1.4,0,0,0,.21-.53c.05-.7.1-1.4.09-2.1s-.25-.8-.87-.78c-.42,0-.83,0-1.24,0-.8,0-1.14.35-1.22,1a7.27,7.27,0,0,1-.35,1.27.78.78,0,0,0,.33,1,4.26,4.26,0,0,0,1.34.77,1,1,0,0,1,.76.86.51.51,0,0,1-.56.62,1.89,1.89,0,0,1-.74-.12,5.87,5.87,0,0,0-2.28-.32,5.47,5.47,0,0,1-1.06-.12,3.47,3.47,0,0,0-1.4,0c-.4.08-.81.17-1.22.23a.62.62,0,0,1-.76-.34.68.68,0,0,1,.12-.87,1.5,1.5,0,0,1,.42-.33A9.39,9.39,0,0,0,29,24.39a2.24,2.24,0,0,0,.76-.86c.35-.8.63-1.63.9-2.46a16.12,16.12,0,0,0,.56-4.69c0-.91,0-1.82.08-2.73a.45.45,0,0,0-.22-.45c-.18-.1-.38-.19-.57-.28a.83.83,0,0,1-.2-1.48A2.28,2.28,0,0,1,31.67,11a5.27,5.27,0,0,1,2,.35,2.59,2.59,0,0,1,1.47,1.47.55.55,0,0,1-.46.78c-.84,0-1,.31-1,1.21a3.87,3.87,0,0,0,.15,1.51,3.33,3.33,0,0,1,.08.84,6,6,0,0,0,.07.73c.09.46.26.62.74.58.71-.05,1.42-.16,2.14-.26a.46.46,0,0,0,.41-.43,9.66,9.66,0,0,0,.15-1.51,6,6,0,0,1,.36-2.37,1.76,1.76,0,0,0,.1-.3c.06-.35,0-.42-.34-.52a1.23,1.23,0,0,1-.86-.49.75.75,0,0,1,0-.85.77.77,0,0,1,.7-.3c.67,0,1.33,0,2-.09s1.11-.1,1.66-.17A4.22,4.22,0,0,0,41.8,11a.75.75,0,0,1,.91.26.89.89,0,0,0,1.14.31h.06a5.23,5.23,0,0,1,2.57-.34c1,0,1.9-.12,2.85-.19.43,0,.86-.09,1.29-.09,1.1,0,2.19,0,3.29,0h.43a.72.72,0,0,1,.74.65,16.23,16.23,0,0,1,.19,2.09c0,.82,0,1.65-.1,2.47a2.83,2.83,0,0,1-.19.8.39.39,0,0,1-.47.28.82.82,0,0,1-.41-.37,1.47,1.47,0,0,1-.11-.56c0-.63-.06-1.26-.11-1.89s-.13-.63-.67-.59A8.28,8.28,0,0,0,48.87,15a.6.6,0,0,0-.27.3,2,2,0,0,0-.08,1.29,2,2,0,0,1,.06.73.59.59,0,0,0,1,.46,1.84,1.84,0,0,0,.35-.33c.31-.45.6-.91.91-1.37a6.06,6.06,0,0,1,.35-.53.57.57,0,0,1,.94,0,1.09,1.09,0,0,1,.18.55,3.45,3.45,0,0,1-.19,1.65.88.88,0,0,0-.1.3c-.09.57-.17,1.14-.26,1.71a4.35,4.35,0,0,1-.1.52,2.6,2.6,0,0,0-.2,1.23.67.67,0,0,1-.05.31c-.07.24-.19.42-.48.43a.49.49,0,0,1-.52-.43c-.08-.34-.11-.7-.16-1,0-.16,0-.32,0-.48s-.2-.36-.45-.25a2.1,2.1,0,0,0-1.29,2.46c.06.39.32.54.81.52s1.08,0,1.62-.09a1.66,1.66,0,0,0,1.34-.83c.62-1,1.17-2.05,1.83-3a1.69,1.69,0,0,1,.2-.25c.43-.38.79-.27,1,.27a4.43,4.43,0,0,1,.18,2.13,12.1,12.1,0,0,1-1,3.38,1,1,0,0,1-1.27.63,6.67,6.67,0,0,0-2.4,0c-1.17.09-2.33.19-3.5.24a13.15,13.15,0,0,0-2.5.39,8.85,8.85,0,0,1-.9.1c-.25,0-.49.08-.73.14-.46.14-.65.11-.81-.15a.74.74,0,0,1,.09-.92,1.67,1.67,0,0,1,.56-.39c.44-.2.9-.35,1.36-.51a1.27,1.27,0,0,0,.82-.79,5.14,5.14,0,0,0,.29-1.17,32.57,32.57,0,0,0,.22-5.67c0-.69,0-1.37,0-2.06a3.7,3.7,0,0,0,0-.47c-.07-.6-.2-.71-.81-.74-.43,0-.86-.1-1.29-.14A1,1,0,0,1,42.65,12.45Zm4,.35a3.11,3.11,0,0,0,0,.33,20.16,20.16,0,0,1,.14,3.3c0,.47,0,.94.07,1.41a5.89,5.89,0,0,1,0,1.57,8.43,8.43,0,0,0-.14,2.13,1.12,1.12,0,0,1,0,.36l-.39,1.85c0,.22,0,.44.2.46a1.4,1.4,0,0,0,1-.05c0-.21-.05-.43-.09-.65a4.89,4.89,0,0,1,.48-3.81.72.72,0,0,0,0-.22,1.78,1.78,0,0,1-.68-1.63c0-.62,0-1.23,0-1.84a9.71,9.71,0,0,1,.09-1.21,1.21,1.21,0,0,1,.65-1,11.2,11.2,0,0,1,1.66-.74c.62-.21,1.28-.34,1.92-.51a1.78,1.78,0,0,0,.27-.14A32.11,32.11,0,0,0,46.61,12.8Zm-14,2.58a.84.84,0,0,0-.23.71,17.8,17.8,0,0,1-.7,5.67c0,.1,0,.21-.06.31-.12.35-.23.7-.37,1a7,7,0,0,0-.64,1.67,1.12,1.12,0,0,0,1.06.1c-.53-.73-.16-1.39.1-2.06,0-.07.06-.13.08-.2a9,9,0,0,0,.42-1.46,1.07,1.07,0,0,1,.74-1s.09-.1.16-.17a1.64,1.64,0,0,1-.35-1.18c0-.6,0-1.19-.07-1.78S32.69,16,32.63,15.38Zm5.31,4.2-1.48.26c0,.09,0,.11,0,.12a.88.88,0,0,0,.17.12,1.79,1.79,0,0,1,1,1.43,6.24,6.24,0,0,1,0,1.88,3.81,3.81,0,0,0,0,.89c0,.27.31.38.63.31s.29-.18.22-.49c-.14-.56-.24-1.13-.38-1.69A7,7,0,0,1,38,20.28C38,20.08,38,19.87,37.94,19.58Zm14.78,4.07c.53.25.66.25.82-.11a15.44,15.44,0,0,0,.52-1.49c0-.08,0-.18-.06-.28l-.13,0C53.45,22.33,53.14,23,52.72,23.65ZM32.46,13.58l.11,0,.32-1.08c-.32-.21-.32-.21-.75-.12C32.39,12.73,32.23,13.2,32.46,13.58Z" transform="translate(-7.44 -5.67)"/><path d="M18.65,5.67c1.07.11,2.14.23,3.21.33.39,0,.79,0,1.18,0,.94.13,1.88.3,2.82.45a1.27,1.27,0,0,0,.43,0,13.49,13.49,0,0,0,2.45-.33c.22-.08.44-.14.65-.23a.72.72,0,0,1,1.06.47A3.29,3.29,0,0,1,30.4,8a28.37,28.37,0,0,1-.54,3.06,7.52,7.52,0,0,0-.32,2.53c.06.66-.37,1-.91,1.22-.38.16-.8-.24-.77-.75s.06-.91.1-1.36c.08-1,.16-2,.23-3,0-.38,0-.43-.43-.52a5.89,5.89,0,0,0-2.83.15.41.41,0,0,0-.34.36c-.12.81-.27,1.62-.35,2.44,0,.38.09.77.07,1.15-.06,1.26-.17,2.52-.21,3.78,0,.7.06,1.4.09,2.1.07,1.28.17,2.56.21,3.83a9,9,0,0,1-.12,1.63,2.08,2.08,0,0,0,.5,1.55,1.21,1.21,0,0,1,.23.62c0,.34-.2.46-.55.4a1.18,1.18,0,0,1-.31-.08,5.17,5.17,0,0,0-2.7-.26c-.61,0-1.22,0-1.83.05a.65.65,0,0,1-.66-.45.52.52,0,0,1,.29-.75,4,4,0,0,1,1.59-.59.5.5,0,0,0,.51-.46,6.74,6.74,0,0,0,.18-1c.1-1.16.19-2.31.23-3.47a28.47,28.47,0,0,0,0-3.2,31.9,31.9,0,0,1,.3-6.18,10.32,10.32,0,0,0,0-1.47c0-.42-.14-.49-.57-.56a10.59,10.59,0,0,0-2.58-.09A2.75,2.75,0,0,0,17,9.6a2.73,2.73,0,0,1-.49.41,1.64,1.64,0,0,0-.74.8c-.08.22-.27.44-.52.38a1,1,0,0,1-.53-.4.71.71,0,0,1,0-.8,4.58,4.58,0,0,1,.5-.74,4.28,4.28,0,0,0,1-2.66c0-.52.31-.78.85-.83h1.51ZM23,18.32l-.18,0c0,.7,0,1.39,0,2.09,0,1-.08,2.06-.17,3.09A11.19,11.19,0,0,1,22.4,25c0,.18,0,.32.19.38s.4.09.52-.11a.59.59,0,0,0,.1-.4,4.69,4.69,0,0,1,.1-1.75,5.87,5.87,0,0,0,0-.94c0-.21-.05-.41-.06-.62,0-.81,0-1.61-.05-2.41A4.17,4.17,0,0,0,23,18.32ZM23,17.76c0-.24.06-.47.08-.71,0-.84,0-1.68.14-2.51a5.9,5.9,0,0,0,0-1.78.82.82,0,0,0-.1-.24H23c0,.27-.08.54-.09.81a11.63,11.63,0,0,1,0,1.57A7.88,7.88,0,0,0,23,17.76Zm1-9.87a1.25,1.25,0,0,0-1-.3l.4.85Zm5,0L29,7.79c-.06,0-.12-.07-.16-.06s-.08.09-.12.14.1.09.16.09S29,7.92,29.06,7.9Z" transform="translate(-7.44 -5.67)"/><path d="M7.44,50.11a26.41,26.41,0,0,1,.29-2.82,6.81,6.81,0,0,1,1.35-3c.46-.57.92-1.13,1.35-1.71a10.34,10.34,0,0,1,1.84-1.84,17.45,17.45,0,0,1,3.52-2.23,5.91,5.91,0,0,1,2.95-.75c1,.06,2,.14,3,.23.24,0,.4,0,.55-.21a4.22,4.22,0,0,1,.57-.63.53.53,0,0,1,.94.16,2.29,2.29,0,0,1,.16,1.5c-.16.72-.36,1.43-.55,2.14a1.09,1.09,0,0,0,0,.26,19,19,0,0,1-.64,3.41c0,.22-.09.44-.13.66s-.21.54-.45.59a.62.62,0,0,1-.71-.45,2.1,2.1,0,0,1-.15-.61,19.34,19.34,0,0,0-.69-3.45c-.09-.45-.32-.56-.79-.47A14.15,14.15,0,0,0,16.17,42a12.58,12.58,0,0,0-1.57,1.1,6.15,6.15,0,0,0-1.43,1.75.85.85,0,0,0-.11.35c-.06.91-.12,1.81-.14,2.72s0,1.8,0,2.69a4.22,4.22,0,0,0,1,2.58,2.84,2.84,0,0,0,.85.7,11.06,11.06,0,0,0,2,.78,2.53,2.53,0,0,0,1.82-.52.71.71,0,0,0,.23-.28c.05-.07.05-.19.11-.24.52-.39.46-1,.48-1.49,0-.77-.27-1-1-1-.52,0-1,0-1.56,0a4.24,4.24,0,0,1-1-.14.74.74,0,0,1-.59-.78.82.82,0,0,1,.64-.76,3.62,3.62,0,0,0,.55-.2A5,5,0,0,1,18.19,49c.8-.08,1.61-.13,2.42-.16s1.47,0,2.2,0c.3,0,.61,0,.91-.06l3.13-.13a.92.92,0,0,1,1.07.8.56.56,0,0,1-.32.66,1.91,1.91,0,0,1-.6.23,10.76,10.76,0,0,0-2.88,1,3.15,3.15,0,0,0-1.75,1.84,7.33,7.33,0,0,1-.86,1.51,7.94,7.94,0,0,1-1.74,2,9.58,9.58,0,0,1-2.83,1.69,7.08,7.08,0,0,1-3.51.28,5.78,5.78,0,0,1-1.55-.57,20.5,20.5,0,0,1-2-1.12A4.57,4.57,0,0,1,8,54.64a11,11,0,0,1-.49-4v-.57Zm5.07-7.44-.21-.12-.23.34c-.32.41-.65.8-1,1.21-.43.57-.88,1.15-1.28,1.74a4.18,4.18,0,0,0-.48,1A9.74,9.74,0,0,0,8.93,50c0,1,.05,2,.11,3a3.15,3.15,0,0,0,1.84,2.77c.38.2.7.5,1.08.69a9.6,9.6,0,0,0,1.82.76,4.48,4.48,0,0,0,2.66-.08,3.61,3.61,0,0,0,1.38-.55A.53.53,0,0,0,18,56.2c0-.19-.24-.14-.41-.14a4.56,4.56,0,0,1-1.17,0,16,16,0,0,1-1.72-.61,4.23,4.23,0,0,1-2.6-2.89,14,14,0,0,1-.6-4.4c0-.63.12-1.26.08-1.89a5.09,5.09,0,0,1,.78-3.11A2.07,2.07,0,0,0,12.51,42.67Zm8.12,10.84a1.77,1.77,0,0,0,.78-1.08,2.65,2.65,0,0,1,1-1.48c.1-.07.21-.24.18-.32a.4.4,0,0,0-.32-.2,10.26,10.26,0,0,0-1.24,0c-.33,0-.39.11-.36.45A12.67,12.67,0,0,1,20.63,53.51Zm.69-13.91A4.2,4.2,0,0,0,22,41.2c.33-.34.2-.74.26-1.1Zm-4,.13-.06-.11a6.08,6.08,0,0,0-2,.85c-.07.05-.09.15-.13.23l.08.08Zm-3.54,1.89a1.18,1.18,0,0,0-1,.8C13.28,42.3,13.48,41.94,13.81,41.62Z" transform="translate(-7.44 -5.67)"/><path d="M85.21,52.37l-.82-.2-1.93-.46-1.08-.33a5.4,5.4,0,0,1-.57-.18.8.8,0,0,1-.55-.77.78.78,0,0,1,.59-.73,7.75,7.75,0,0,1,1.43-.23c1.72-.09,3.45-.15,5.17-.23a3.77,3.77,0,0,0,.75-.11,5.1,5.1,0,0,1,2-.11c.29,0,.58,0,.87,0a1.4,1.4,0,0,1,1.1.57.54.54,0,0,1,0,.64,1.45,1.45,0,0,1-.75.65,6.25,6.25,0,0,1-.6.24,1.91,1.91,0,0,0-1.32,1.4,13.53,13.53,0,0,1-.47,1.4,5.23,5.23,0,0,1-.71,1.11A3.68,3.68,0,0,1,87,56.19c-.3.13-.57.31-.87.43a5.42,5.42,0,0,1-1,.33c-.7.15-1.41.25-2.11.4a9.55,9.55,0,0,1-3.33,0c-.37,0-.75-.1-1.11-.17a4.42,4.42,0,0,1-.83-.24,11.88,11.88,0,0,1-2.45-1.21,3.22,3.22,0,0,1-1-1.07A9.39,9.39,0,0,1,73,49.78a6.4,6.4,0,0,1,.77-2.61,15.9,15.9,0,0,1,2.08-2.75,3.92,3.92,0,0,1,.53-.45c1-.78,2-1.59,3.06-2.33a8,8,0,0,1,3.23-1.38,2.78,2.78,0,0,1,.86-.06,10.4,10.4,0,0,1,2.52.54c.48.19.52.16.7-.32.3-.83.6-1.66.91-2.48a1.74,1.74,0,0,1,.3-.49.5.5,0,0,1,.88.08,2.61,2.61,0,0,1,.24.91A6.09,6.09,0,0,1,88.79,41a6.2,6.2,0,0,0-.27,1.81,12.16,12.16,0,0,1-.18,1.35l-.18,1.15c0,.13,0,.28,0,.41s-.15.44-.43.48A.64.64,0,0,1,87,46a4,4,0,0,1-.36-.64,2.61,2.61,0,0,0-1.23-1.2,3.26,3.26,0,0,0-2.51,0,6.78,6.78,0,0,0-1.55.59,5.9,5.9,0,0,0-2.08,2,19.89,19.89,0,0,0-1.35,2.15,2.39,2.39,0,0,0-.35,1.52,2,2,0,0,0,.28.84,7.47,7.47,0,0,0,2.71,2.43,3.42,3.42,0,0,0,2.82.13,4.44,4.44,0,0,0,1.59-1A2.87,2.87,0,0,0,85.21,52.37Zm1.06-9.66a1.18,1.18,0,0,0-.85-.54c-.43-.12-.88-.18-1.32-.3A4.16,4.16,0,0,0,82,42c-.31.08-.6.23-.91.33a5.81,5.81,0,0,0-1.67,1c-.8.62-1.62,1.21-2.4,1.86a12.77,12.77,0,0,0-1.8,2.22,4.81,4.81,0,0,0-.79,2.47,4.72,4.72,0,0,0,.4,2.42A4.55,4.55,0,0,0,76,54.23a7.81,7.81,0,0,0,1.65,1,10,10,0,0,0,5.17.74A11.15,11.15,0,0,0,86,55.21a3.48,3.48,0,0,0,1.88-1.79,17.75,17.75,0,0,0,.7-2.25c.09-.31,0-.43-.36-.42s-.64.07-1,.08c-.66,0-.73.13-.46.72a1.51,1.51,0,0,1,.13.29.79.79,0,0,1,0,.4,3.25,3.25,0,0,1-.41.86,4.52,4.52,0,0,1-2.63,1.81c-.2.05-.4.16-.6.22a7.54,7.54,0,0,1-.94.22A4.52,4.52,0,0,1,79,54.24,8.77,8.77,0,0,1,76.85,52a3.64,3.64,0,0,1-.26-3.62,14.32,14.32,0,0,1,1.28-2.25A8.09,8.09,0,0,1,82,42.8a10.29,10.29,0,0,1,1.35-.35,4.11,4.11,0,0,1,2.78.29Zm.84.51c0-.07.11-.12.1-.14s-.08-.11-.13-.11S87,43,87,43.08Z" transform="translate(-7.44 -5.67)"/><path d="M66.29,49.87a1.46,1.46,0,0,0,.17-.32c.4-1.73.92-3.42,1.49-5.1.28-.85.27-.87-.64-1.07s-1.87-.36-2.8-.54a2,2,0,0,1-.42-.1.87.87,0,0,1-.48-.77.84.84,0,0,1,.64-.7,5.92,5.92,0,0,1,1.18-.13,11.92,11.92,0,0,0,3.08-.43c1.2-.32,2.45-.51,3.69-.73a.83.83,0,0,1,.93.27,1,1,0,0,1,0,1.13c-.45.74-.88,1.49-1.28,2.25a22.59,22.59,0,0,0-1.54,3.53c-.08.26-.22.51-.31.78-.17.51-.36,1-.49,1.55a14.65,14.65,0,0,1-.93,2.73c-.3.63-.5,1.31-.76,2s-.61,1.6-.93,2.4a.74.74,0,0,1-.55.53.66.66,0,0,1-.66-.37,26,26,0,0,1-2.5-5c-.43-1.14-.91-2.25-1.42-3.35a2.9,2.9,0,0,0-1.11-1.21,5.29,5.29,0,0,0-.2,1.32c0,.24,0,.49,0,.74a8.81,8.81,0,0,1-.12,1.25,11.53,11.53,0,0,0-.19,4.34,6.25,6.25,0,0,0,.17.72,1.08,1.08,0,0,0,.77.8,6.91,6.91,0,0,1,.79.33c.33.17.44.38.37.68s-.28.47-.66.49c-1.13,0-2.26.07-3.39.16a11.48,11.48,0,0,0-1.63.33c-.11,0-.21.07-.32.08-.63,0-1.25.08-1.88.08s-.87-.29-.89-.73a.59.59,0,0,1,.49-.65,6.52,6.52,0,0,1,.74-.16,3,3,0,0,0,2.08-1.2,1.44,1.44,0,0,0,.27-.62c.1-.76.16-1.53.24-2.3,0-.35.08-.7.09-1.05,0-.83,0-1.67,0-2.51,0-.63.11-1.26.15-1.89,0-.32.06-.63.06-.95,0-.86,0-1.72,0-2.58a.61.61,0,0,0-.43-.65c-.39-.13-.78-.27-1.18-.37a1.31,1.31,0,0,1-.92-.67.65.65,0,0,1,.46-1,5.08,5.08,0,0,1,1.82-.06c.56,0,1.11.13,1.65.22a10.44,10.44,0,0,1,1.26.27c.64.17.91.71,1.18,1.22a13.88,13.88,0,0,0,1.89,2.69A13.61,13.61,0,0,1,64.46,47c.47.74.91,1.51,1.37,2.26C66,49.46,66.1,49.62,66.29,49.87Zm-7,6.53c0-.16-.1-.32-.13-.49a15.41,15.41,0,0,1-.32-2.5c0-1.13.28-2.26.4-3.39.06-.51,0-1,0-1.52a2.33,2.33,0,0,1,0-.37c.16-.82.3-1.65.49-2.47.12-.48.49-.58.92-.32a1.64,1.64,0,0,1,.32.27c.5.53,1,1,1.49,1.6a3.07,3.07,0,0,1,.43.67c.11.21.2.44.3.66.2.45.41.9.59,1.36s.45,1.22.71,1.81.64,1.45,1,2.16c.18.37.4.73.64,1.17.11-.2.18-.31.23-.43.16-.39.31-.79.47-1.18.41-1,.89-2,1.22-3.09.48-1.51.89-3,1.48-4.51a32.81,32.81,0,0,1,1.56-3.28c.13-.25.22-.51.37-.86a9.13,9.13,0,0,0-2.53.44c.15.18.24.28.32.39a1.21,1.21,0,0,1,.22,1.15c-.33,1-.69,2.06-1,3.09a7.2,7.2,0,0,0-.68,2.57,1,1,0,0,1-.08.31c-.1.44-.21.88-.32,1.32s-.15.77-.26,1.13a2.53,2.53,0,0,1-.36.76.47.47,0,0,1-.86-.06,1.74,1.74,0,0,1-.17-.5A8.38,8.38,0,0,0,64.91,50c-.54-.91-1.08-1.82-1.65-2.71-.27-.41-.59-.79-.89-1.18a16.05,16.05,0,0,1-1.91-2.67A1.07,1.07,0,0,0,60,43a5.17,5.17,0,0,0-.94-.23,11.51,11.51,0,0,0-.19,1.87,31.12,31.12,0,0,1-.15,4.63,5.51,5.51,0,0,0,0,1.46,4,4,0,0,1,0,1.46,8.66,8.66,0,0,0-.07.89,5.8,5.8,0,0,1-.14,1.76c0,.13,0,.28,0,.42-.08.32-.16.63-.26,1a3.05,3.05,0,0,1-.19.42A2.11,2.11,0,0,0,59.33,56.4Z" transform="translate(-7.44 -5.67)"/><path d="M41.34,51.18a2.64,2.64,0,0,0,.29-.34l1.82-3.4c.22-.42.46-.83.67-1.26s.15-.4-.18-.52a10.71,10.71,0,0,0-1.35-.35c-.4-.09-.56-.23-.63-.61a.56.56,0,0,1,.42-.7,5.64,5.64,0,0,1,1.27-.22,38.45,38.45,0,0,0,3.86-.36c.93-.09,1.86-.17,2.79-.21a1.41,1.41,0,0,1,.72.19.8.8,0,0,1,.12,1.4c-.55.45-1.12.89-1.62,1.38-.88.88-1.72,1.8-2.57,2.69l-.43.4a7,7,0,0,0-.62.59c-.62.77-1.25,1.53-1.84,2.33-.72,1-1.39,2-2.08,3-.44.64-.88,1.29-1.32,1.92a1.24,1.24,0,0,1-.28.32.5.5,0,0,1-.78-.15,2.11,2.11,0,0,1-.19-.55c-.27-1.19-.51-2.4-.77-3.6s-.57-2.56-.86-3.85c-.11-.51-.24-1-.36-1.54a5,5,0,0,0-.79-1.82c-.38-.53-.7-1.1-1-1.66a1.81,1.81,0,0,1-.18-.49.63.63,0,0,1,.36-.8,9.06,9.06,0,0,1,1.12-.35c.24-.07.49-.1.73-.18a2.29,2.29,0,0,1,1.63,0,1.89,1.89,0,0,0,.63.09c.25,0,.51,0,.76,0a.68.68,0,0,1,.63.62.65.65,0,0,1-.4.78c-.25.13-.53.21-.8.32-.62.26-.73.5-.57,1.15.2.87.38,1.75.57,2.63a1.55,1.55,0,0,0,.08.36c.33.85.67,1.7,1,2.54A1.35,1.35,0,0,0,41.34,51.18Zm7.75-6.3-.44-.06a8.53,8.53,0,0,0-2.47.1.61.61,0,0,0-.6.55,4.9,4.9,0,0,1-.76,1.79,3.6,3.6,0,0,0-.29.5,20.9,20.9,0,0,1-1.76,3.3,3.45,3.45,0,0,0-.14.34,13.08,13.08,0,0,1-.83,1.46c-.38.54-.8.45-1-.16-.17-.41-.35-.81-.51-1.22-.39-1-.81-2-1.14-3a15.27,15.27,0,0,1-.4-1.9c-.1-.48-.18-1-.32-1.44a3.41,3.41,0,0,1-.1-1.19c0-.36-.1-.43-.46-.3l-.4.17c-.42.19-.43.24-.19.62A11.59,11.59,0,0,1,38,45.75a22.82,22.82,0,0,1,1.07,3.8c.21.76.36,1.54.53,2.31.13.56.23,1.13.36,1.69s.18.83.31,1.23.28.3.47.08a5.8,5.8,0,0,0,.49-.62c.45-.67.82-1.39,1.33-2,.64-.8,1.25-1.63,1.91-2.41s1.29-1.47,2-2.18,1.35-1.36,2-2C48.65,45.39,48.83,45.17,49.09,44.88Z" transform="translate(-7.44 -5.67)"/><path d="M28.23,43.36c1.22-.08,2.44-.15,3.66-.24a1.15,1.15,0,0,0,.36-.07c.59-.15,1.09.23,1,.8a2.34,2.34,0,0,1-.62,1.42A2.34,2.34,0,0,0,32,47.2a18.51,18.51,0,0,1,0,2.47c-.08,1-.33,1.93-.4,2.91a2.14,2.14,0,0,0,1,2.09c.36.23.74.44,1.12.64a.67.67,0,0,1,.38.54c.06.51-.23.82-.73.68a5.61,5.61,0,0,0-2.2.06c-1.21.13-2.42.34-3.62.55-.85.15-1.69.34-2.53.52a1.17,1.17,0,0,0-.2.06c-.46.12-.7,0-.85-.32a.71.71,0,0,1,.31-.91,3.93,3.93,0,0,1,.8-.32c.69-.18,1.39-.36,2.09-.52a2.9,2.9,0,0,0,1.61-1.16,1.12,1.12,0,0,0,.18-.55c0-.29.07-.59.09-.89,0-.67,0-1.35.05-2,0-.35,0-.7.09-1.05a22.16,22.16,0,0,0,0-4c0-.59-.17-.71-.78-.81a10.46,10.46,0,0,0-3.11,0,2.08,2.08,0,0,1-.43,0,.67.67,0,0,1-.59-.47.55.55,0,0,1,.27-.68,4.33,4.33,0,0,1,1.78-.57c.65-.1,1.32-.13,2-.19Zm3,1.19a7.94,7.94,0,0,0-.86,0c-.31,0-.36.12-.29.42a19.5,19.5,0,0,1,.19,5.23,11.26,11.26,0,0,0,.09,1.38c.29-.17.24-.38.26-.55a4.62,4.62,0,0,1,.12-1,3.37,3.37,0,0,0,.15-1.91,5.38,5.38,0,0,1,.2-3A2.8,2.8,0,0,0,31.24,44.55Zm-1.44,11c.3,0,.51,0,.72-.06s.49-.24.41-.56c-.12-.51-.29-1-.46-1.5,0-.07-.11-.11-.24-.22Z" transform="translate(-7.44 -5.67)"/><path d="M53.72,56.52l-2.08.27c-.64.07-1.29.13-1.93.17s-1.47.09-2.21.13c-.44,0-.67-.11-.75-.43a.7.7,0,0,1,.44-.81,8.64,8.64,0,0,1,1.12-.37c.42-.1.85-.17,1.27-.24.23,0,.39-.11.38-.35a23,23,0,0,0-.09-3.62,1.33,1.33,0,0,0-1.25-1.18c-.19,0-.39-.06-.58-.11-.42-.09-.57-.24-.59-.57A.78.78,0,0,1,48,48.6l1.18-.37c.74-.21,1.47-.44,2.22-.6a4.25,4.25,0,0,1,1.07,0c.27,0,.35.23.4.44a3.05,3.05,0,0,1,0,1.56,6.65,6.65,0,0,0-.15,2.59,7.6,7.6,0,0,1,0,1,1.86,1.86,0,0,0,1.7,1.95c.33,0,.69.05.77.5a.66.66,0,0,1-.49.86,7.42,7.42,0,0,1-.94.18Zm-3.5-7.25a6.43,6.43,0,0,1,.41.65,5.28,5.28,0,0,1,.46,2.14c0,.86,0,1.72,0,2.58a2.57,2.57,0,0,0,.08.62c.08.28.35.36.71.23s.31-.19.21-.53a10.81,10.81,0,0,1-.44-1.67,16.22,16.22,0,0,1-.06-2.09c0-.63.1-1.26.15-1.89,0-.35-.08-.48-.41-.39S50.65,49.13,50.22,49.27Z" transform="translate(-7.44 -5.67)"/><path d="M52.62,88.7a1.8,1.8,0,0,0,.77-1.06,3.5,3.5,0,0,1,.36-.76,2.35,2.35,0,0,0,.21-.42c.18-.62.35-1.25.51-1.88a1.16,1.16,0,0,0,0-.76.87.87,0,0,1,.06-.57,2.48,2.48,0,0,0,.09-1.45A6.24,6.24,0,0,1,54.59,80a3.46,3.46,0,0,0-.15-1.56,2.35,2.35,0,0,0-2.14-1.59c-.4-.07-.81-.12-1.21-.21a.71.71,0,0,1-.36-1.22,1.39,1.39,0,0,1,.65-.33,10.9,10.9,0,0,1,2.42-.15,17.54,17.54,0,0,0,1.77-.12,2.29,2.29,0,0,0,.51-.15,3.62,3.62,0,0,1,.62-.18c1.45-.14,2.9-.28,4.35-.38a3.85,3.85,0,0,1,1,.15c.45.08.88.18,1.33.27a.91.91,0,0,1,.87,1c0,.26-.08.52-.09.78a12.23,12.23,0,0,1-.68,2.36c-.07.3-.13.62-.2.92a.76.76,0,0,1-.79.71c-.54.06-.5.07-.63.59-.18.68-.41,1.35-.63,2s-.51,1.49-.75,2.24c-.13.41-.41.64-.76.59a.82.82,0,0,1-.56-.86c0-.33.09-.66.1-1,0-.56-.11-.65-.67-.53a.86.86,0,0,0-.7.52,4.76,4.76,0,0,0-.45,2.3.74.74,0,0,0,.52.65,2.33,2.33,0,0,0,1.3.14A16.61,16.61,0,0,1,61,86.81a2.42,2.42,0,0,0,1.85-1,11.74,11.74,0,0,0,1-1.63,8.27,8.27,0,0,0,.41-1.08c.1-.28.19-.61.55-.64s.54.27.64.56.18.81.28,1.22a5.39,5.39,0,0,1-.45,3.26,5.68,5.68,0,0,1-.88,1.67,3.1,3.1,0,0,1-2.16,1.15c-.39,0-.79-.06-1.17,0a12.2,12.2,0,0,0-2.08.26c-.54.18-1.11.27-1.67.41h-.06a3.94,3.94,0,0,0-1.6.11h0c-1,.23-2,.13-3,.43a1.85,1.85,0,0,1-1.66-.11.45.45,0,0,1-.24-.38,2.21,2.21,0,0,1,.17-1.34s0-.06,0-.1-.08,0-.09,0c-.57.37-1.23.07-1.84.22a.41.41,0,0,1-.3-.07,1.78,1.78,0,0,0-1.15-.2,1.54,1.54,0,0,1-.48,0,2.84,2.84,0,0,0-1.58.16,1.5,1.5,0,0,1-.63,0c-.37,0-.52-.17-.52-.55a11.61,11.61,0,0,1,.11-1.77,5.27,5.27,0,0,0-.2-2.64,3.91,3.91,0,0,0-1.49-1.81A2.36,2.36,0,0,0,41,82.44a2.19,2.19,0,0,0-1.87,1.37,3.09,3.09,0,0,0-.23,1.06,4.9,4.9,0,0,0,0,1.21,2.52,2.52,0,0,0,.39,1.22,2.59,2.59,0,0,0,1.43.89,1.57,1.57,0,0,1,.68.37.83.83,0,0,1,.07,1.1.65.65,0,0,1-.48.17c-.6-.06-1.19-.18-1.79-.26a1.09,1.09,0,0,0-.57,0,3.1,3.1,0,0,1-1.21.19,2.65,2.65,0,0,0-.69.07c-.59.15-1.17.34-1.75.52-.07,0-.15.06-.2,0-.67-.2-1.32.1-2,.07a9.93,9.93,0,0,0-1.54.16,1.59,1.59,0,0,1-.88-.16.83.83,0,0,1-.44-.9.91.91,0,0,1,.59-.75,6,6,0,0,0,.57-.28c.05,0,.09-.07.14-.08l1.47-.27a3.85,3.85,0,0,0,.47-.08l2-.59a.91.91,0,0,0,.76-.84c0-.47,0-.95,0-1.42s0-.65.06-1a7.4,7.4,0,0,0,0-.94,2.13,2.13,0,0,1,0-.87,3.24,3.24,0,0,0,0-.88c0-.26,0-.52,0-.78a2.46,2.46,0,0,0,0-.47A3.28,3.28,0,0,1,36,79c.08-.66-.16-.94-.83-1a5.84,5.84,0,0,1-1-.18.86.86,0,0,1-.32-1.36,1.35,1.35,0,0,1,.56-.4c.53-.15,1.09-.24,1.63-.35.07,0,.15,0,.21,0l2.9-.6c.52-.45,1.15-.3,1.75-.31s1.4-.05,2.1,0,1.19.25,1.79.35a6.93,6.93,0,0,1,2.32,1,2.25,2.25,0,0,1,1.28,2.21,2.53,2.53,0,0,1-.73,1.55c-.19.19-.35.4-.53.59s-.56.55-.85.81-.38.51-.13.77a2.73,2.73,0,0,1,.61,1.59,4.3,4.3,0,0,0,.62,1.5c.12.18.19.38.31.55a3.6,3.6,0,0,0,2,1.36,1.68,1.68,0,0,1,.42.22,1.23,1.23,0,0,0,1.12.22,1,1,0,0,1,.78.08.57.57,0,0,1,.4.56C52.41,88.34,52.53,88.49,52.62,88.7Zm-9.56-8.58a13.5,13.5,0,0,1-1.69,0,10.35,10.35,0,0,0-2.36,0,.62.62,0,0,1-.78-.46,3,3,0,0,0-.29-.56c-.14-.19-.33-.18-.42,0a1.84,1.84,0,0,0-.18.76c0,.75,0,1.51,0,2.26a1.83,1.83,0,0,0,0,.47c.08.29.12.62.5.78a7.88,7.88,0,0,1,.39-.77c.24-.37.38-.82.8-1a4,4,0,0,1,3.33-.39,2.35,2.35,0,0,0,.41.09ZM59.62,77.2a2,2,0,0,0-1.72.58c-.17.2-.37.37-.53.58a.51.51,0,0,0-.1.37c.08.34.19.68.29,1A.37.37,0,0,0,58,80a3.57,3.57,0,0,0,1.51-.51,10,10,0,0,1,2.06-1c.34-.1.4-.22.28-.54a1.79,1.79,0,0,0-.69-.78.85.85,0,0,0-.9-.15A3.74,3.74,0,0,1,59.62,77.2Zm-3.74,8.12c-.1.13-.19.2-.22.3-.1.42-.18.85-.27,1.27a4.35,4.35,0,0,1-.1.52c-.19.47-.41.92-.59,1.4a.64.64,0,0,0,0,.43c.07.18.26.16.42.12l.26-.07A2.68,2.68,0,0,1,57,89.15a1.12,1.12,0,0,0,.47-.07c.1,0,.21-.09.3-.08s.32.09.32-.13-.17-.14-.27-.19a.83.83,0,0,0-.22,0,1.65,1.65,0,0,1-1.39-1.76A2.11,2.11,0,0,0,55.88,85.32ZM45.11,76.85c-.07.39.18.56.32.77A1.17,1.17,0,0,1,45.52,79a1.27,1.27,0,0,1-1.36.72.74.74,0,0,0-.21,0c.21.36.4.45.74.37a2.12,2.12,0,0,1,.36-.1,2.85,2.85,0,0,0,2-1.65.49.49,0,0,0-.09-.63,2.18,2.18,0,0,0-.57-.38,8.76,8.76,0,0,0-.84-.35A4.36,4.36,0,0,0,45.11,76.85Zm9.77-.42a3.69,3.69,0,0,0,1,1.65,1.28,1.28,0,0,0,.2-.32,1.9,1.9,0,0,1,.73-1,2.17,2.17,0,0,0,.36-.31.45.45,0,0,0,.13-.35c-.06-.2-.23-.15-.4-.11Zm-8.5,11.43a1.61,1.61,0,0,0,.22,0c.55,0,.67-.33.37-.76-.14-.22-.25-.46-.37-.69s-.18-.45-.28-.68-.18-.28-.37-.22a.28.28,0,0,0-.18.42,1.14,1.14,0,0,1,0,.87,1,1,0,0,0-.07.35C45.65,87.71,45.82,87.87,46.38,87.86Zm9.8-7.24A2.75,2.75,0,0,0,56,81.87a4.65,4.65,0,0,1-.11,1.44.71.71,0,0,0,.34.87,1,1,0,0,1,.24-1,1.91,1.91,0,0,0,.25-.33c.13-.29.36-.62.29-.86A3.69,3.69,0,0,0,56.18,80.62ZM39.46,78.5a2.48,2.48,0,0,1,.67,0,11,11,0,0,0,2.36.15.64.64,0,0,0,.34-.12c.27-.16.52-.35.79-.53a1.63,1.63,0,0,0-1-.08,9.14,9.14,0,0,1-1.27.14l-1.55.11C39.64,78.19,39.47,78.22,39.46,78.5Zm22.9,9.9a1.13,1.13,0,0,0,1.27-.69,3.34,3.34,0,0,0,.38-.88A4,4,0,0,0,62.36,88.4ZM60.3,81.27a.32.32,0,0,0-.36-.3c-.26,0-.54.26-.52.45a.32.32,0,0,0,.36.31C60,81.71,60.31,81.45,60.3,81.27ZM37.6,87c-.34.35-.35.53-.1.89C37.89,87.68,37.91,87.53,37.6,87ZM56.05,80.2c.12-.24.15-.43-.13-.58C55.7,80,55.7,80,56.05,80.2ZM58,76c-.07,0-.11-.11-.14-.1a.65.65,0,0,0-.15.1s.06.09.08.09A1.09,1.09,0,0,0,58,76ZM45.43,83.3a.71.71,0,0,0-.19-.13s-.06.06-.1.09.07.09.11.1S45.34,83.33,45.43,83.3Z" transform="translate(-7.44 -5.67)"/><path d="M14.84,77.56c-.16-.21-.32-.41-.47-.63a1,1,0,0,1-.1-.81c.09-.37.14-.75.2-1.13.11-.75.21-1.49.31-2.24a.93.93,0,0,1,.12-.4,1.38,1.38,0,0,0,.19-1,.7.7,0,0,1,.59-.77,3.29,3.29,0,0,1,.54,0c.63,0,1.26-.07,1.88-.08a7.11,7.11,0,0,1,.92.06l1.06.08c.05,0,.11,0,.16,0a5.09,5.09,0,0,0,2,0,3.53,3.53,0,0,1,.65,0,6.37,6.37,0,0,1,2.34.49,4.91,4.91,0,0,0,1.42.24,6.11,6.11,0,0,0,1.76,0,2.86,2.86,0,0,0,1.25-.29.71.71,0,0,1,.25-.06,8.36,8.36,0,0,0,1.43-.22,2.69,2.69,0,0,0,1.4-.83c.14-.19.25-.47.58-.36a.79.79,0,0,1,.54.67.81.81,0,0,1,0,.31c-.13.51-.29,1-.4,1.53s-.22,1.13-.32,1.7c0,.17,0,.35-.06.52-.1.87-.19,1.74-.31,2.61s-.25,1.62-.39,2.43a.83.83,0,0,1-.13.34.65.65,0,0,1-.58.33.59.59,0,0,1-.53-.46c-.07-.32-.08-.66-.12-1s-.07-.62-.1-.93a1.09,1.09,0,0,1,0-.36,4,4,0,0,0-.43-2.14,1.17,1.17,0,0,0-.8-.65,4.82,4.82,0,0,0-1-.32c-.74-.1-1.5-.28-2.1.39a.93.93,0,0,0-.24.82.93.93,0,0,1,0,.5,2.44,2.44,0,0,0-.19,1.48A1.33,1.33,0,0,1,26,78a1.6,1.6,0,0,0-.06.92,3.29,3.29,0,0,1,0,1c0,.36-.18.71-.2,1.07a4.1,4.1,0,0,0,.09,1,3.28,3.28,0,0,1,0,1.25,5,5,0,0,0,0,1.09,3,3,0,0,1,0,.52,4.17,4.17,0,0,0-.1.77c0,.58.11,1.15.19,1.72a2,2,0,0,0,1.15,1.56c.53.27,1,.56,1.55.86a3.75,3.75,0,0,1,.51.38.79.79,0,0,1,.22.92.76.76,0,0,1-.8.52,4.51,4.51,0,0,1-1.32-.22,5.29,5.29,0,0,0-1.36-.27,7.88,7.88,0,0,1-1.79-.3,2.54,2.54,0,0,0-.63-.06l-.84-.09c-.09,0-.17-.08-.26-.07a6.25,6.25,0,0,0-2.06.27l0,0c-.44.19-1.75-.39-1.8-.84a1.91,1.91,0,0,1,.23-1,3.2,3.2,0,0,1,.64-.9,1.83,1.83,0,0,1,.79-.42A5.1,5.1,0,0,0,22,86.49a.53.53,0,0,0,.16-.27c.25-.82.49-1.65.71-2.48a.8.8,0,0,0,0-.46.88.88,0,0,1-.07-.71.19.19,0,0,0,0-.15c-.34-.51-.1-1-.08-1.57,0-.8.11-1.61.17-2.41a8.47,8.47,0,0,0,.1-1.5c-.06-.59.21-1.18,0-1.77-.05-.14,0-.33,0-.5a4.29,4.29,0,0,0,0-.72.46.46,0,0,0-.45-.39c-.25,0-.5,0-.75-.06-.07,0-.15,0-.22,0a6.37,6.37,0,0,0-2.46,0,2,2,0,0,0-1.76,1.1,1.44,1.44,0,0,1-.32.48,1,1,0,0,0-.41.93.72.72,0,0,1-.43.82A.38.38,0,0,0,16,77C15.78,77.4,15.36,77.48,14.84,77.56Zm9.54-2.78c0,.3.12.51.31.49s.25-.25.28-.44a.43.43,0,0,0,0,0,6.51,6.51,0,0,1,.13-.77c.09-.28.25-.54.35-.82,0-.09,0-.29-.08-.31a1.33,1.33,0,0,0-.55-.12c-.07,0-.16.17-.19.27s0,.28,0,.41C24.54,73.89,24.46,74.34,24.38,74.78Zm7.3-.72a1.58,1.58,0,0,0,.11-1.28.35.35,0,0,0-.4-.28c-.26,0-.52,0-.76,0a.45.45,0,0,0,.05.61c.21.25.43.5.66.74A1.68,1.68,0,0,0,31.68,74.06Zm-7.8,13.49-.14,0a4.08,4.08,0,0,0-.28.49.49.49,0,0,0,0,.37.6.6,0,0,0,.63.14.28.28,0,0,0,.14-.4A5.2,5.2,0,0,0,23.88,87.55Z" transform="translate(-7.44 -5.67)"/><path d="M78.89,73.07l1.74.12a1.05,1.05,0,0,1,1.07,1.4,10.53,10.53,0,0,1-.53,1.26c-.33.76-.67,1.51-1,2.27a4.45,4.45,0,0,0-.19.82.9.9,0,0,1-.66.74.43.43,0,0,1-.51-.29,2.14,2.14,0,0,1-.12-.66c0-.7-.06-1.4-.1-2.1,0-.48,0-.47-.54-.52L77,76a.8.8,0,0,0-.38,0,10.85,10.85,0,0,0-3,1.28,6.54,6.54,0,0,0-.81.77c-.25.29-.22.45.09.7.49.4.64.35,1.2.07.77-.39,1.41-1,2.14-1.4s.84-.27,1.11.37a.8.8,0,0,1,.07.2,4.3,4.3,0,0,1,0,2.08,4.33,4.33,0,0,0-.1,2.23,1.7,1.7,0,0,1-.11.92.67.67,0,0,1-.74.47.56.56,0,0,1-.52-.53,5.15,5.15,0,0,1-.05-1,.85.85,0,0,0-1.13-.91,4.22,4.22,0,0,0-.78.35,2.12,2.12,0,0,0-1.08,2,4.27,4.27,0,0,1-.13.77c-.07.39,0,.44.33.59a3.24,3.24,0,0,0,1.69.22c.61-.1,1.25-.09,1.87-.13a4.53,4.53,0,0,0,.91-.09,2.08,2.08,0,0,0,.8-.4,10.34,10.34,0,0,0,1.89-2.28,16.47,16.47,0,0,1,2.18-2.75l.08-.07c.25-.22.5-.49.89-.29a1.1,1.1,0,0,1,.55,1.11c-.13.46-.27.91-.41,1.37-.08.28-.16.57-.26.85-.15.43-.33.85-.46,1.28a13.64,13.64,0,0,0-.62,2.16c0,.35-.12.7-.19,1s-.23.49-.62.54a3.84,3.84,0,0,0-.46.11,1.52,1.52,0,0,1-.25.09c-.69.13-1.38.23-2.07.38-.94.2-1.94.09-2.87.35a4.44,4.44,0,0,1-1.81.17,14.54,14.54,0,0,1-3.16.16c-.68-.25-1.39.05-2.08-.09a1,1,0,0,0-.47.1,1.33,1.33,0,0,1-1.45-.4.44.44,0,0,1,0-.62c.11-.13.22-.28.34-.41l1.59-1.63a7.56,7.56,0,0,0,.6-.67,6,6,0,0,0,.81-3.48,8.54,8.54,0,0,0-.27-2.66c-.16-.61-.28-1.23-.42-1.85a.94.94,0,0,0-.66-.7,5.55,5.55,0,0,0-1-.26c-.51-.09-1-.14-1.54-.23a.87.87,0,0,1-.76-.78.63.63,0,0,1,.46-.79A9.6,9.6,0,0,1,67.29,74c.89-.14,1.79-.06,2.68-.26a13,13,0,0,1,2-.15l2.53-.16,2.31-.16ZM71.08,77.9a3.71,3.71,0,0,1,1.16-1.53c.49-.35,1-.62,1.56-.92l.41-.24a1.51,1.51,0,0,0-1-.29c-.62,0-1.25.06-1.87.11a3.14,3.14,0,0,0-.68.13c-.38.11-.47.27-.36.63.19.6.39,1.2.59,1.79A1.14,1.14,0,0,0,71.08,77.9ZM73.56,87c-.13-.11-.19-.21-.29-.25a4.57,4.57,0,0,0-.85-.31,1.34,1.34,0,0,1-1-1l-.2-.49a3,3,0,0,0-.44.4c-.27.36-.52.74-.78,1.12s-.17.58.3.61a9.39,9.39,0,0,1,1.07,0A5.64,5.64,0,0,0,73.56,87Zm7.9-3.57a.54.54,0,0,0-.55.35,4.66,4.66,0,0,1-.43.66A8.07,8.07,0,0,1,79,85.91c-.09.06-.12.21-.24.43.58-.08,1-.12,1.46-.21a.69.69,0,0,0,.56-.57c.13-.51.28-1,.43-1.52C81.31,83.84,81.38,83.65,81.46,83.42ZM71.37,79.08l-.14,0c0,.18,0,.36,0,.54s.07.35.08.52c0,.56,0,1.12,0,1.67a5.94,5.94,0,0,1,0,.73.5.5,0,0,0,.19.56,5.18,5.18,0,0,0,.13-.54A3.41,3.41,0,0,1,72.22,81a.67.67,0,0,0-.06-.88c-.21-.28-.4-.58-.6-.86A1,1,0,0,0,71.37,79.08Zm4.27,7.68c.44.13.44.13.46-.23Zm4.14-12-.13.11c0,.05,0,.14,0,.17a.59.59,0,0,0,.2.07l.06-.08Z" transform="translate(-7.44 -5.67)"/></svg>