<?xml version="1.0" encoding="utf-8"?>
<!-- Generator: Adobe Illustrator 23.0.3, SVG Export Plug-In . SVG Version: 6.00 Build 0)  -->
<svg version="1.1" id="Layer_1" xmlns="http://www.w3.org/2000/svg" xmlns:xlink="http://www.w3.org/1999/xlink" x="0px" y="0px"
	 viewBox="0 0 100 100" style="enable-background:new 0 0 100 100;" xml:space="preserve">
<path d="M62.3,79.2c-0.1,0.1-0.2,0.3-0.3,0.4c-0.2,0.4-0.3,0.8-0.4,1.2c-0.2,0.7-0.5,1.4-0.7,2.2c-0.1,0.3-0.2,0.7-0.3,1
	c-0.1,0.4-0.3,0.6-0.6,0.6c-0.3,0-0.6-0.4-0.6-0.8c0-0.2,0-0.4,0.1-0.7c0-0.1,0-0.3,0-0.4c0-0.2,0-0.4-0.3-0.5
	c-0.2-0.1-0.5-0.2-0.7,0c-0.1,0.2-0.3,0.3-0.4,0.5c-0.5,0.7-0.4,1.5-0.4,2.3c0,0.4,0.3,0.7,0.6,0.8c0.2,0.1,0.5,0.1,0.7,0.1
	c0.7-0.1,1.4-0.2,2.1-0.2c0.9-0.1,1.5-0.6,2-1.4c0.5-0.7,0.9-1.5,1.1-2.4c0.1-0.4,0.3-0.7,0.6-0.6c0.4,0,0.5,0.3,0.5,0.6
	c0.1,0.6,0.3,1.2,0.4,1.9c0,0.2,0,0.5,0,0.7c-0.3,0.9-0.5,1.9-0.9,2.8c-0.3,0.7-0.7,1.4-1.6,1.5c-0.5,0.1-1,0.2-1.5,0.3
	c-0.7,0.1-1.3,0.1-2,0.2c-0.2,0-0.5,0.1-0.7,0.2c-0.8,0.3-1.7,0.2-2.5,0.3c-1,0.1-2,0.2-3,0.4c-0.4,0.1-0.8,0.2-1.2,0.2
	c-0.5,0-0.8-0.2-0.9-0.6c-0.1-0.3,0-0.5,0.2-0.7c0.2-0.2,0.4-0.3,0.6-0.5c0.1-0.1,0.2-0.1,0.3-0.3c-0.2-0.1-0.3-0.1-0.4-0.1
	c-0.1,0-0.3,0.1-0.4,0.1c-0.4,0.1-0.8,0.2-1.3,0.2c-0.7,0-1.3,0-2-0.1c-0.4,0-0.8,0-1.3,0c-0.3,0-0.5,0.1-0.8,0.2
	c-0.3,0.1-0.5,0.1-0.8,0c-0.3-0.2-0.5-0.4-0.4-0.8c0-0.4,0.1-0.8,0.2-1.2c0.2-1.1,0.1-2.2-0.3-3.2c0-0.1-0.1-0.2-0.1-0.3
	c-0.5-0.5-1-1.1-1.6-1.4c-0.8-0.4-2.3-0.2-2.8,1c-0.3,0.8-0.5,1.7-0.4,2.6c0.1,0.5,0.3,1.1,0.7,1.5c0.2,0.2,0.4,0.3,0.6,0.4
	c0.2,0.1,0.5,0.2,0.8,0.3c0.2,0.1,0.4,0.2,0.5,0.4c0.4,0.4,0.1,1-0.4,1.1c-0.2,0-0.3,0-0.5,0c-0.3,0-0.6-0.1-1-0.2
	c-0.4-0.1-0.7-0.1-1.1,0.1c-0.1,0.1-0.3,0.1-0.4,0.1c-0.4-0.1-0.7,0-1.1,0.1c-0.4,0.1-0.8,0.2-1.2,0.2c-0.1,0-0.2,0-0.2,0.1
	c-0.2,0.2-0.4,0.3-0.7,0.1c-0.2-0.1-0.4-0.1-0.6,0c-0.7,0.3-1.5,0.3-2.3,0.3c-0.3,0-0.7,0.1-1,0c-0.5-0.2-0.7-0.6-0.4-1.1
	c0.3-0.5,0.8-0.7,1.4-0.8c0.2,0,0.4,0,0.6-0.1c0.4-0.1,0.8-0.1,1.1-0.2c0.1,0,0.3-0.1,0.4-0.1c0.4-0.2,0.8-0.4,1.3-0.4
	c0.4-0.1,0.6-0.3,0.7-0.7c0-0.2,0.1-0.4,0.1-0.7c0-1,0-2,0-3.1c0-0.4,0-0.9,0-1.3c0-0.7-0.1-1.4-0.1-2.1c0-0.4,0-0.8,0-1.1
	c0-0.5,0-0.6-0.5-0.7c-0.3-0.1-0.7-0.1-1-0.2c-0.1,0-0.1,0-0.1,0c-0.6-0.2-0.8-0.9-0.4-1.4c0.2-0.3,0.5-0.4,0.9-0.5
	c0.7-0.1,1.3-0.2,2-0.3c0.9-0.2,1.7-0.5,2.5-0.7C41,74,41.2,74,41.4,74c0.2,0,0.5,0,0.7,0c0.9-0.1,1.9-0.1,2.8,0.2
	c0.3,0.1,0.6,0.1,0.9,0.2c0.8,0.2,1.5,0.6,2.2,1c0.7,0.4,1.1,1.1,1.1,2c0,0.5-0.3,1-0.6,1.4c-0.2,0.2-0.4,0.5-0.6,0.7
	c-0.3,0.3-0.5,0.5-0.8,0.8c-0.4,0.4-0.5,0.6-0.1,1c0.3,0.4,0.4,0.8,0.5,1.3c0.1,0.7,0.3,1.3,0.7,1.8c0,0.1,0.1,0.1,0.1,0.2
	c0.2,0.8,0.9,1.1,1.5,1.4c0.4,0.2,0.8,0.4,1.2,0.5c0.3,0.1,0.7,0.2,1,0.2c0.6,0,0.9,0.2,1,0.8c0,0.1,0,0.2,0.1,0.3c0,0,0,0,0.1,0.1
	c0.2-0.2,0.4-0.4,0.5-0.6c0.2-0.2,0.3-0.5,0.4-0.7c0.3-0.5,0.4-1,0.5-1.5c0-0.5,0.2-1,0.3-1.5c0.1-0.9,0.3-1.8,0.2-2.7
	c-0.1-0.7-0.1-1.4-0.1-2.2c0-0.4,0-0.8-0.1-1.2c-0.2-0.8-0.7-1.3-1.4-1.5c-0.4-0.1-0.8-0.2-1.2-0.2c-0.2,0-0.5-0.1-0.7-0.2
	c-0.3-0.1-0.4-0.4-0.4-0.7c0-0.3,0.1-0.5,0.4-0.6c0.2-0.1,0.5-0.2,0.7-0.2c0.7-0.1,1.5-0.1,2.2-0.1c0.7,0,1.5,0,2.1-0.3
	c0.1-0.1,0.3-0.1,0.4-0.1c1.3-0.1,2.7-0.3,4-0.4c0.5-0.1,1,0.1,1.5,0.2c0.3,0.1,0.6,0.1,0.9,0.2c0.5,0.1,0.7,0.4,0.8,0.8
	c0,0.2,0,0.4,0,0.5c-0.2,0.7-0.2,1.3-0.5,2c-0.2,0.5-0.3,1.1-0.4,1.6c0,0.1-0.1,0.3-0.2,0.4C63,79.2,62.8,79.3,62.3,79.2z M58.7,88
	c-0.2-0.4-0.2-0.4-0.6-0.5c-0.9-0.1-1.5-0.7-1.5-1.6c0-0.6-0.1-1.1,0-1.7c0-0.5,0.1-0.9,0.2-1.4c0.2-0.5,0.4-1.1,0.6-1.6
	c0.1-0.2,0.1-0.4-0.1-0.6c-0.2-0.4-0.4-0.8-0.5-1.2c-0.2-0.6-0.2-1.1-0.4-1.7c-0.1-0.5,0-1,0.4-1.4c0.4-0.4,0.8-0.9,1.4-1.1
	c0.2-0.1,0.4-0.1,0.6-0.4c-0.2,0-0.4-0.1-0.5,0c-0.3,0.1-0.7,0.2-1,0.3c-0.4,0.1-0.7,0.2-1.1,0.2c-0.3,0-0.6,0.1-0.8,0.3
	c0,0.1,0,0.1,0,0.1c0.6,0.8,0.8,1.8,0.9,2.8c0.1,0.8,0.1,1.5,0.2,2.3c0,0.4,0,0.9,0,1.3c-0.1,0.8-0.1,1.5-0.3,2.3
	c-0.1,0.6-0.2,1.2-0.2,1.8c0,0.2-0.1,0.4-0.2,0.6c-0.2,0.4-0.4,0.8-0.6,1.2c-0.1,0.2,0,0.4,0.2,0.4c0.2,0,0.4,0,0.6,0
	c0.6,0,1.2-0.1,1.9-0.2C58,88.2,58.3,88.2,58.7,88z M38.8,83.1C38.8,83.1,38.8,83.1,38.8,83.1c0.2-0.3,0.4-0.7,0.5-1
	c0.6-1.6,2.5-2.3,3.8-1.8c0.3,0.1,0.5,0.2,0.9,0.1c-0.2-0.6,0-1,0.6-1.2C44.2,79,44.2,79,44,79c-0.8,0.2-1.7,0.2-2.6,0.1
	c-0.3,0-0.5,0-0.8,0c-0.8,0.2-1,0.1-1.2-0.7c0,0,0-0.1,0-0.1c-0.1-0.3-0.3-0.5-0.5-0.4c-0.3,0.1-0.2,0.3-0.2,0.6
	c0,1.5,0.1,3,0.1,4.5C38.7,83,38.7,83,38.8,83.1z M58.2,79.1c0.1,0,0.3,0,0.4-0.1c0.4-0.2,0.9-0.4,1.3-0.6c0.6-0.3,1.1-0.7,1.8-0.8
	c0.2,0,0.2-0.2,0.2-0.3c0-0.8-0.7-1.4-1.5-1.2c-0.2,0-0.3,0-0.5,0.1c-0.7,0.1-1.4,0.2-1.9,0.7c-0.5,0.5-0.6,0.8-0.4,1.4
	c0.1,0.2,0.1,0.4,0.2,0.6C57.9,79,58,79.1,58.2,79.1z M44.8,78.9c0.2,0.4,0.5,0.4,0.8,0.4c1.1-0.2,1.8-0.9,2.3-1.9
	c0.1-0.2,0.1-0.4-0.2-0.6c-0.5-0.4-1-0.6-1.6-0.8c-0.2-0.1-0.3-0.1-0.4,0.2c0.2,0.2,0.4,0.4,0.6,0.5c0.6,0.7,0.4,1.6-0.5,2
	c-0.1,0.1-0.3,0.1-0.4,0.1C45.2,78.8,45,78.8,44.8,78.9z M47.1,86.9c0.3,0,0.5,0,0.8-0.1c0.4-0.1,0.5-0.3,0.2-0.5
	c-0.3-0.3-0.5-0.7-0.7-1.1c-0.1-0.2-0.2-0.5-0.4-0.7c-0.1-0.1-0.2-0.1-0.3-0.2c0,0.1-0.1,0.2-0.1,0.3c0,0.5,0,1,0,1.5
	C46.5,86.8,46.6,86.9,47.1,86.9z M44.6,77.4C44.4,77,44.1,77,43.8,77c-0.2,0-0.3,0.1-0.5,0.1c-0.5,0-1,0-1.6,0.1
	c-0.3,0-0.7,0.1-1,0.2c-0.1,0-0.1,0.2-0.2,0.3c0.1,0,0.2,0.1,0.2,0.1c0.5,0,1,0.1,1.5,0.1C43,77.8,43.8,77.8,44.6,77.4z M62.2,87.5
	c0.8,0,1.1-0.1,1.4-0.5c0.4-0.5,0.5-1,0.4-1.3c-0.6,0.5-1.2,1.1-1.8,1.6c0,0,0,0.1,0,0.1C62.1,87.4,62.1,87.4,62.2,87.5z M59.2,80.6
	c0.2,0.1,0.4,0.2,0.6,0.3c0.3,0.1,0.4,0,0.5-0.2c0.1-0.2,0.2-0.5,0.1-0.7C60,79.9,59.6,80.1,59.2,80.6z M38.6,86.6
	C38.6,86.6,38.6,86.6,38.6,86.6c0,0.1,0,0.2,0,0.3c0,0.1,0.1,0.3,0.2,0.3c0.1,0,0.3-0.1,0.4-0.2c0.1-0.1,0.1-0.2,0.1-0.3
	c0-0.2-0.1-0.4-0.2-0.6c0-0.1-0.1-0.2-0.2-0.2c-0.1,0-0.2,0.1-0.2,0.1C38.6,86.2,38.6,86.4,38.6,86.6z M46.2,82.7
	c0.1-0.7-0.1-1-0.7-0.9C45.6,82.2,45.9,82.4,46.2,82.7z M62.2,74.9c0.1,0.2,0.2,0.4,0.3,0.5c0.1,0.1,0.2,0.1,0.3,0
	c0.1-0.1,0.1-0.2,0-0.4C62.7,74.9,62.6,74.8,62.2,74.9z"/>
<path d="M46.6,24.2c-0.4,0-0.6,0-0.9,0c-0.5,0-0.6,0.2-0.7,0.6c-0.2,0.6-0.3,1.2-0.5,1.7c-0.1,0.3,0,0.5,0.2,0.7
	c0.4,0.3,0.8,0.6,1.3,0.8c0.4,0.1,0.7,0.4,0.8,0.9c0.1,0.4-0.1,0.6-0.5,0.6c-0.2,0-0.5,0-0.7-0.1c-0.7-0.3-1.5-0.3-2.3-0.3
	c-0.3,0-0.5,0-0.8-0.1c-0.5-0.1-0.9-0.1-1.4,0c-0.4,0.1-0.8,0.2-1.2,0.2c-0.4,0.1-0.6-0.1-0.8-0.4c-0.1-0.3,0-0.7,0.2-0.9
	c0.1-0.1,0.2-0.1,0.3-0.2c0.4-0.2,0.7-0.4,1.1-0.5c0.4-0.2,0.6-0.6,0.8-1c0.5-0.9,0.7-1.9,0.9-2.8c0.2-0.7,0.3-1.4,0.3-2.1
	c0.1-1.3,0.1-2.5,0.1-3.8c0-0.3,0-0.7,0.1-1c0-0.2,0-0.4-0.2-0.5c-0.2-0.1-0.4-0.2-0.5-0.3c-0.6-0.3-0.7-0.9-0.2-1.4
	c0.3-0.3,0.6-0.5,1.1-0.5c0.3,0,0.5,0,0.8,0c0.9,0,1.8,0.3,2.4,1c0.2,0.2,0.3,0.5,0.4,0.8c0.1,0.4-0.1,0.8-0.5,0.8
	c-0.7,0.1-0.9,0.3-0.9,1c0,0.6-0.1,1.2,0.2,1.8c0.1,0.2,0,0.4,0.1,0.7c0,0.2,0,0.5,0.1,0.7c0.1,0.5,0.4,0.8,0.9,0.7
	c0.6-0.1,1.1-0.2,1.7-0.3c0.4-0.1,0.6-0.3,0.6-0.7c0-0.3,0.1-0.7,0.1-1c0-0.9,0.2-1.8,0.4-2.6c0-0.1,0.1-0.2,0.1-0.4
	c0-0.2-0.1-0.4-0.3-0.4c-0.1,0-0.3-0.1-0.4-0.1c-0.4-0.1-0.5-0.5-0.6-0.9c0-0.4,0.3-0.7,0.7-0.6c0.6,0.1,1.2,0,1.8-0.1
	c0.6-0.1,1.2-0.1,1.9-0.2c0.2,0,0.5,0,0.7-0.1c0.3-0.1,0.6-0.1,0.8,0.2c0.3,0.4,0.6,0.4,1,0.3c0.2-0.1,0.5-0.2,0.7-0.2
	c0.3-0.1,0.5-0.2,0.8-0.2c1.5,0.1,2.9-0.1,4.4-0.2c1-0.1,2-0.1,2.9-0.1c0.4,0,0.8,0,1.2,0c0.6,0.1,0.9,0.4,0.9,1c0,0.1,0,0.3,0,0.4
	c0,0.5,0.1,1,0.1,1.4c-0.1,0.7-0.1,1.4-0.1,2.2c0,0.3-0.1,0.6-0.2,1c0,0.1-0.2,0.2-0.4,0.3c-0.2,0-0.4-0.1-0.4-0.3
	c-0.1-0.4-0.1-0.8-0.2-1.3c0-0.4-0.1-0.9-0.1-1.3c0-0.4-0.1-0.5-0.5-0.4c-0.4,0-0.7,0.1-1.1,0.1c-0.4,0.1-0.8,0.1-1.2,0.2
	c-0.7,0.1-1.4,0.5-2,0.9c-0.1,0.1-0.2,0.2-0.3,0.4c-0.1,0.4-0.2,0.9-0.1,1.3c0.1,0.2,0.1,0.5,0.1,0.7c0,0.3,0.1,0.5,0.4,0.5
	c0.4,0,0.8-0.1,1-0.5c0.3-0.5,0.6-1,0.9-1.5c0.1-0.1,0.1-0.2,0.2-0.3c0.1-0.2,0.3-0.3,0.5-0.2c0.2,0.1,0.4,0.2,0.4,0.4
	c0.2,0.5,0.2,0.9,0.1,1.4c-0.1,0.6-0.2,1.3-0.4,1.9c-0.1,0.4-0.2,0.9-0.3,1.3c-0.1,0.3-0.1,0.5-0.1,0.8c0,0.2,0,0.3,0,0.5
	c0,0.4-0.2,0.6-0.4,0.6c-0.3,0-0.4-0.2-0.5-0.6c-0.1-0.4-0.1-0.9-0.2-1.3c-0.1-0.4-0.2-0.5-0.5-0.3c-0.9,0.5-1.3,1.3-1.2,2.4
	c0.1,0.4,0.3,0.6,0.7,0.6c0.5,0,1-0.1,1.5-0.1c0.5,0,0.9-0.2,1.3-0.6c0.3-0.3,0.5-0.6,0.6-1c0.3-0.7,0.7-1.3,1.1-1.9
	c0.1-0.2,0.3-0.4,0.4-0.6c0.3-0.4,0.7-0.3,0.8,0.1c0.1,0.4,0.2,0.8,0.2,1.2c0,0.5,0,1.1-0.1,1.6c-0.2,0.9-0.4,1.8-0.7,2.6
	c-0.2,0.6-0.4,0.7-1,0.7c-0.3,0-0.6-0.1-0.9-0.1c-0.5,0-0.9,0.1-1.4,0.1c-1.3,0.1-2.7,0.2-4,0.3c-0.7,0.1-1.3,0.2-1.9,0.4
	c-0.2,0-0.4,0.1-0.5,0.1c-0.4,0-0.8,0-1.2,0.2c-0.2,0.1-0.4,0-0.6-0.2c-0.2-0.2-0.2-0.6-0.1-0.8c0.2-0.2,0.4-0.5,0.7-0.6
	c0.5-0.2,1-0.4,1.5-0.6c0.3-0.1,0.5-0.4,0.5-0.6c0.2-0.7,0.3-1.4,0.4-2.2c0.2-2.2,0.1-4.4,0.1-6.7c0-0.3,0-0.5-0.1-0.8
	c-0.1-0.4-0.2-0.5-0.6-0.5c-0.4,0-0.8-0.1-1.2-0.1c-0.4,0-0.7-0.1-0.9-0.5c-0.1-0.2-0.2-0.2-0.4-0.2c-0.4,0.1-0.7,0.2-1,0.5
	c-0.5,0.5-1,1.1-1.2,1.8c-0.3,1-0.5,1.9-0.7,2.9c-0.1,0.5-0.1,1-0.1,1.5c0,0.6,0,1.2,0,1.8c0,0.6,0,1.1,0.2,1.6
	c0.1,0.2,0.1,0.4,0.1,0.6c0.1,0.7,0.4,1,1,1.2c0.3,0.1,0.6,0.3,0.9,0.5c0.1,0.1,0.2,0.3,0.3,0.5c0.1,0.4-0.2,0.6-0.6,0.6
	c-1,0-2,0-3,0c-0.2,0-0.5,0.1-0.7,0.2c-0.2,0.1-0.4,0.1-0.6,0.2c-0.5,0.1-0.9-0.4-0.7-0.9c0.1-0.2,0.2-0.3,0.3-0.5
	c0.1-0.1,0.2-0.3,0.2-0.5C48,26.6,48,26,48,25.4c0-0.2,0-0.4,0-0.6c-0.1-0.6-0.2-0.7-0.8-0.7C47,24.2,46.7,24.2,46.6,24.2z
	 M62.4,15.3c0,0,0-0.1,0-0.1c-0.7-0.1-4.4,0.2-4.9,0.4c0,0.2,0.1,0.4,0.1,0.5c0,0.2,0.1,0.4,0.1,0.6c0,0.6,0,1.3,0,1.9
	c0,1.2,0.2,2.4,0.1,3.6c-0.1,0.6,0,1.2-0.1,1.7c-0.1,0.8-0.3,1.7-0.4,2.5c0,0.1,0,0.2-0.1,0.3c0,0.2,0.1,0.3,0.3,0.3
	c0.2,0,0.4,0,0.6,0c0.3,0,0.4-0.2,0.4-0.5c-0.1-0.5-0.2-0.9-0.2-1.4c0-0.9-0.1-1.9,0.6-2.7c0,0,0-0.1,0-0.2c-0.5-0.4-0.7-1-0.7-1.6
	c0-1,0.1-1.9,0.1-2.9c0-0.3,0.1-0.6,0.4-0.8c0.4-0.4,0.8-0.7,1.3-0.9c0.6-0.2,1.2-0.4,1.8-0.5C62,15.4,62.2,15.3,62.4,15.3z
	 M43.3,27.7c0-0.1,0-0.1,0-0.2c-0.3-0.5-0.2-1,0-1.6c0.2-0.6,0.4-1.1,0.5-1.7c0.1-0.6,0.3-1.2,1-1.4c-0.4-0.5-0.4-1-0.4-1.5
	c-0.1-1-0.1-2-0.2-3c0-0.1,0-0.3-0.2-0.4c0,0.3,0,0.5,0,0.7c0,0.9,0,1.8-0.1,2.6c-0.1,1.1-0.2,2.3-0.6,3.4c0,0.1,0,0.2-0.1,0.3
	c-0.1,0.4-0.2,0.7-0.4,1.1c-0.2,0.4-0.4,0.9-0.5,1.3c0,0.1,0,0.4,0.1,0.4C42.7,27.8,43,27.9,43.3,27.7z M47.7,22.6
	c0.2,0.1,0.2,0.2,0.3,0.2c0.5,0.2,0.7,0.6,0.9,1c0.2,0.5,0.2,1,0.2,1.5c0,0.5-0.1,1-0.1,1.5c0,0.1,0.1,0.3,0.1,0.4
	c0.3,0,0.5,0,0.8,0c0,0,0.1-0.2,0.1-0.3c-0.2-0.5-0.3-1.1-0.4-1.6c-0.2-0.9-0.4-1.7-0.3-2.7c0,0,0-0.1,0-0.1c0-0.3-0.1-0.3-0.3-0.3
	C48.6,22.4,48.2,22.5,47.7,22.6z M63.4,26.3c0.6,0.3,0.8,0.2,1-0.3c0.1-0.3,0.2-0.6,0.3-0.9c0.1-0.3,0.2-0.6,0.1-1
	C64.2,24.9,63.8,25.6,63.4,26.3z M44.1,17.4c0.3-0.7-0.1-1.5,0.4-2.1c-0.3-0.2-0.5-0.3-0.8-0.1C44.1,15.9,43.9,16.7,44.1,17.4z"/>
<path d="M19,51.7c-0.5,0-0.9-0.1-1.4-0.1c-0.4-0.1-0.6-0.3-0.7-0.7c0-0.4,0.2-0.7,0.6-0.8c1-0.4,2.1-0.4,3.1-0.4
	c0.7,0,1.3-0.1,2-0.1c1.1-0.1,2.3-0.1,3.4-0.2c0.5,0,1-0.1,1.5-0.1c0.3,0,0.5,0,0.8,0.1c0.5,0.1,0.7,0.3,0.7,0.8
	c0,0.3-0.2,0.6-0.6,0.7c-0.3,0.1-0.5,0.1-0.8,0.2c-0.7,0.3-1.4,0.5-2.1,0.8c-0.8,0.4-1.4,1-1.7,1.9c-0.2,0.6-0.6,1.2-1,1.8
	c-0.5,0.9-1.3,1.6-2.1,2.3c-1,0.9-2.2,1.4-3.5,1.6c-1.3,0.2-2.5,0-3.6-0.6c-0.8-0.4-1.5-0.9-2.2-1.4c-0.5-0.4-0.9-0.9-1.2-1.5
	c-0.3-0.6-0.4-1.3-0.5-2c-0.1-0.4-0.1-0.9-0.1-1.3c0-0.6,0-1.3,0-1.9c0-0.5,0-1.1,0-1.6c0-0.8,0.1-1.5,0.5-2.1
	c0.1-0.2,0.2-0.4,0.2-0.6c0.1-0.5,0.3-0.9,0.7-1.2c0.2-0.2,0.3-0.4,0.4-0.6c0.5-0.7,1-1.4,1.6-2c0.6-0.7,1.4-1.3,2.1-1.8
	c1-0.8,2.2-1.4,3.4-1.9c0.8-0.3,1.6-0.5,2.4-0.3c0.7,0.1,1.4,0.2,2.1,0.3c0.2,0,0.3,0,0.4-0.2c0.2-0.2,0.3-0.4,0.5-0.6
	c0.4-0.4,0.8-0.3,1,0.2c0.2,0.6,0.2,1.1,0.1,1.7c-0.2,0.6-0.4,1.3-0.5,1.9c-0.1,0.4-0.1,0.8-0.1,1.2c-0.1,0.7-0.3,1.4-0.4,2.1
	c-0.1,0.3-0.1,0.5-0.1,0.8c0,0.4-0.2,0.6-0.5,0.6c-0.3,0-0.6-0.2-0.7-0.6c-0.2-0.9-0.3-1.8-0.5-2.7c-0.1-0.4-0.2-0.8-0.2-1.2
	c-0.1-0.4-0.3-0.6-0.7-0.5c-0.8,0.2-1.6,0.3-2.3,0.6c-1.3,0.5-2.4,1.2-3.3,2.3c-0.6,0.7-0.9,1.5-0.9,2.4c0,1.6-0.1,3.3,0.1,4.9
	c0.2,1.4,0.7,2.7,2.3,3.2c0.2,0.1,0.4,0.1,0.6,0.2c0.6,0.3,1.1,0.2,1.7,0c0.1,0,0.2-0.1,0.3-0.1c0.8-0.5,1.3-1.8,1-2.7
	c-0.1-0.2-0.2-0.4-0.4-0.4C19.9,51.7,19.5,51.6,19,51.7C19,51.6,19,51.7,19,51.7z M19.7,56.6c-0.1,0-0.1-0.1-0.1-0.1
	c0,0-0.1,0-0.1,0c-0.6,0.1-1.2,0.1-1.7-0.1c-0.6-0.3-1.3-0.5-1.9-0.8c-0.4-0.2-0.7-0.5-0.9-0.8c-0.7-0.8-1-1.8-1.2-2.9
	c-0.2-1.1-0.3-2.3-0.3-3.4c0-0.7,0-1.4,0-2.2c0-0.1,0-0.2,0-0.4c0.1-0.8,0.3-1.5,0.7-2.2c0.1-0.2,0.2-0.4,0.2-0.8
	c-0.3,0.4-0.6,0.7-0.8,1c-0.5,0.6-0.9,1.2-1.3,1.8c-0.3,0.5-0.6,1-0.8,1.6c-0.3,0.9-0.4,1.9-0.4,2.9c0,1,0,2.1,0.1,3.1
	c0.1,0.9,0.4,1.7,1,2.3c0.9,0.7,1.9,1.2,2.9,1.8c0.1,0.1,0.3,0.1,0.4,0.1c1.3,0.3,2.5,0.1,3.7-0.4C19.3,57.2,19.6,57,19.7,56.6z
	 M22.1,53.9c0.5-0.2,0.5-0.5,0.6-0.8c0.2-0.6,0.5-1.2,1-1.6c0.1-0.1,0.2-0.2,0.3-0.5c-0.8,0-1.4-0.1-1.9,0.1
	C22.1,52,22.1,52.9,22.1,53.9z M23.6,40.7c-0.3-0.2-0.6-0.3-1-0.5c0.2,0.6,0.4,1.2,0.7,1.7C23.6,41.5,23.5,41.1,23.6,40.7z
	 M19.1,40.3c-0.7-0.1-2.1,0.6-2.3,1.1C17.6,41,18.4,40.6,19.1,40.3z M14.6,42.9c0.5-0.2,0.9-0.4,0.9-0.8
	C15.2,42.3,14.9,42.4,14.6,42.9z"/>
<path d="M76.8,78c0.2,0.6-0.2,1.2-0.2,1.8c0,0.4,0,0.8,0,1.2c0,0.4,0,0.8-0.1,1.1c-0.1,0.3-0.3,0.4-0.6,0.4c-0.3,0-0.4-0.2-0.5-0.5
	c-0.1-0.4-0.1-0.9-0.1-1.3c0-0.5-0.3-0.8-0.7-0.8c-0.1,0-0.2,0-0.3,0.1c-0.4,0.2-0.9,0.5-1.3,0.8c-0.3,0.2-0.4,0.5-0.4,0.8
	c-0.1,0.5-0.2,1.1-0.2,1.6c-0.1,0.4,0,0.4,0.3,0.6c0.6,0.3,1.3,0.3,1.9,0.2c0.5-0.1,1-0.1,1.5-0.1c1,0.1,1.7-0.3,2.3-1.1
	c0.6-0.9,1.2-1.8,1.9-2.7c0.4-0.6,0.9-1.1,1.3-1.6c0.1-0.1,0.1-0.2,0.2-0.2c0.5-0.4,1-0.2,1.2,0.4c0.1,0.6-0.1,1-0.3,1.6
	c-0.1,0.4-0.2,0.8-0.3,1.2c-0.1,0.5-0.2,0.9-0.4,1.3c-0.4,0.9-0.6,1.8-0.7,2.7c-0.1,0.6-0.1,0.7-0.7,0.9c-1.1,0.2-2.2,0.5-3.3,0.7
	c-0.6,0.1-1.3,0.1-2,0.3c-1.1,0.3-2.2,0.2-3.3,0.3c-0.6,0.1-1.3,0-1.9-0.1c-0.3,0-0.7-0.1-1-0.1c-0.3,0-0.7,0.1-1,0.1
	c-0.3,0-0.6,0-0.9,0c-0.4-0.1-0.5-0.5-0.4-0.9c0.1-0.1,0.2-0.3,0.3-0.4c0.4-0.5,0.9-0.9,1.3-1.3c0.5-0.5,0.8-1.1,1.2-1.7
	c0.1-0.1,0.1-0.3,0.1-0.4c0.1-1,0.3-2,0.2-3c-0.1-1-0.3-2-0.4-3c-0.1-0.4-0.2-0.7-0.3-1.1c-0.1-0.2-0.3-0.3-0.4-0.4
	c-0.7-0.3-1.4-0.4-2.1-0.4c-0.3,0-0.6-0.1-0.8-0.3c-0.5-0.4-0.5-1.1,0.1-1.3c0.5-0.2,1-0.3,1.6-0.3c0.7-0.1,1.5-0.1,2.2-0.2
	c1-0.1,2.1-0.2,3.1-0.2c0.3,0,0.6-0.1,0.9-0.1c1.6-0.1,3.1-0.3,4.7-0.4c0.6,0,1.3,0.1,1.9,0.1c0.3,0,0.6,0.3,0.6,0.6
	c0.1,0.4,0.1,0.8-0.1,1.2c-0.2,0.3-0.3,0.6-0.5,0.9c0,0.1-0.1,0.1-0.1,0.2c-0.1,0.6-0.4,1-0.6,1.5c-0.2,0.5-0.3,0.9-0.4,1.4
	c0,0.4-0.2,0.6-0.5,0.6c-0.3,0-0.6-0.2-0.6-0.5c0-0.2,0-0.5,0-0.7c0.1-0.7-0.1-1.3-0.1-2c0-0.2-0.2-0.3-0.3-0.3
	c-0.7-0.2-1.4-0.2-2.1,0.1c-0.3,0.2-0.6,0.3-1,0.3c-0.1,0-0.1,0-0.2,0.1c-0.7,0.4-1.5,0.8-2,1.5c-0.2,0.2-0.2,0.4,0,0.6
	c0.1,0.1,0.3,0.3,0.5,0.4c0.2,0.2,0.4,0,0.6,0c0.7-0.3,1.3-0.8,1.9-1.3c0.2-0.1,0.4-0.3,0.6-0.4c0.3-0.1,0.5-0.1,0.7,0.2
	c0.1,0.2,0.2,0.5,0.3,0.8C76.9,77.5,76.8,77.7,76.8,78z M74.1,74.1c0,0,0-0.1,0-0.1c-0.2,0-0.4-0.1-0.6-0.1c-0.5,0-1,0-1.6,0.1
	c-0.6,0-1.1,0.1-1.7,0.1c-0.5,0.1-0.6,0.3-0.3,0.7c0.2,0.3,0.3,0.7,0.4,1.1c0,0.3,0.1,0.5,0.2,0.7c0,0.1,0.1,0.2,0.2,0.4
	c0.1-0.2,0.2-0.3,0.2-0.3c0.1-0.2,0.1-0.3,0.2-0.5c0.4-0.7,1.1-1.1,1.7-1.5C73.3,74.5,73.7,74.3,74.1,74.1z M70.9,83.8
	c-0.3,0.1-0.4,0.3-0.5,0.6c-0.2,0.3-0.4,0.7-0.6,1c-0.1,0.1-0.1,0.2-0.2,0.2c-0.2,0.3-0.1,0.5,0.3,0.5c0.6,0,1.2,0.1,1.8,0.1
	c0.2,0,0.3,0,0.5,0c1.2-0.1,2.3-0.3,3.5-0.4c0.2,0,0.3,0,0.4-0.1c0.1,0,0.1-0.1,0.3-0.2c-0.5-0.2-0.9-0.1-1.4-0.1
	c-0.5,0.1-1.1,0.1-1.7,0.1c-0.2,0-0.5-0.1-0.7-0.1c-0.7-0.1-1.4-0.5-1.6-1.3C71,84,71,83.9,70.9,83.8z M80.8,81.8
	c-0.3,0.1-0.4,0.3-0.6,0.5c-0.4,0.8-0.9,1.5-1.5,2.1c-0.2,0.2-0.4,0.3-0.6,0.5C78,85,77.9,85.1,78,85.3c0.4-0.1,0.8-0.1,1.2-0.2
	c0.1,0,0.3-0.1,0.4-0.1c0.3-0.1,0.4-0.2,0.5-0.6c0.2-0.8,0.4-1.5,0.7-2.3C80.8,82.1,80.8,82,80.8,81.8z M70.9,77.7
	c-0.2,0.2-0.1,0.4-0.1,0.7c0.1,0.9,0.2,1.8,0.2,2.7c0,0.1,0,0.3-0.1,0.4c-0.1,0.3,0,0.6,0.2,0.9c0.1-0.3,0.1-0.5,0.2-0.8
	c0.1-0.7,0.2-1.3,0.7-1.8c0.1-0.1,0.1-0.3,0-0.4C71.7,78.8,71.3,78.3,70.9,77.7z M79.1,74.4c0.1-0.2,0.2-0.3,0.2-0.4
	c0-0.1-0.2-0.4-0.4-0.3c-0.1,0-0.2,0.2-0.2,0.2C78.8,74,78.9,74.2,79.1,74.4z"/>
<path d="M22.5,72.5c-0.6,0-1.1,0-1.5,0.1c-0.6,0.1-1.1,0.4-1.4,0.9c-0.5,0.9-1,1.7-1.5,2.6c-0.2,0.4-0.6,0.6-0.9,0.5
	c-0.4-0.1-0.6-0.6-0.5-1c0.1-0.9,0.3-1.8,0.4-2.7c0.1-0.4,0.1-0.7,0.2-1.1c0-0.3,0.1-0.7,0.1-1c0-0.6,0.2-0.9,0.7-1
	c0.6-0.1,1.1-0.1,1.7,0c0.1,0,0.2,0.1,0.4,0.1c1.1,0,2.2,0.1,3.2,0.1c0.3,0,0.6-0.1,0.9-0.1c0.8-0.1,1.6,0.1,2.3,0.4
	c0.7,0.2,1.3,0.4,2,0.4c0.4,0,0.8,0,1.3,0c0.4,0,0.8-0.1,1.2-0.3c0.2-0.1,0.4-0.1,0.6-0.1c0.7,0,1.4-0.2,2-0.5
	c0.2-0.1,0.3-0.3,0.5-0.5c0.2-0.2,0.3-0.5,0.6-0.4c0.2,0.1,0.6,0.5,0.5,0.8c0,0.3-0.1,0.7-0.2,1c-0.4,1-0.5,2.1-0.6,3.2
	c-0.1,0.7-0.2,1.5-0.3,2.2c-0.1,0.8-0.2,1.6-0.3,2.4c0,0.2-0.1,0.4-0.2,0.6c-0.3,0.4-0.8,0.3-1-0.1c-0.1-0.3-0.2-0.7-0.2-1
	c0-1-0.1-2-0.3-3c-0.1-0.7-0.5-1.1-1.2-1.3c-0.6-0.2-1.2-0.3-1.9-0.3c-0.6,0-0.9,0.2-1,0.7c-0.1,0.7-0.2,1.5-0.3,2.2
	c0,0.1,0,0.2,0,0.3c-0.3,1.3-0.2,2.7-0.3,4c-0.1,0.9,0.1,1.7,0.1,2.6c0,0.6,0,1.2,0,1.8c0,0.4,0,0.8,0,1.1c0,0.9,0.4,1.5,1.2,2
	c0.4,0.3,0.9,0.5,1.4,0.7c0.2,0.1,0.5,0.3,0.7,0.5c0.2,0.2,0.4,0.4,0.3,0.7c-0.1,0.3-0.3,0.6-0.6,0.6c-0.4,0-0.8,0-1.2-0.1
	c-0.8-0.3-1.6-0.3-2.4-0.5c-0.8-0.2-1.7-0.1-2.4-0.4c-0.1,0-0.2,0-0.2,0c-0.6,0.1-1.2,0.1-1.8,0.2c-0.5,0.1-0.9,0-1.3-0.3
	c-0.1-0.1-0.2-0.3-0.2-0.4c0-0.4,0.1-0.7,0.3-1c0.4-0.5,0.8-0.9,1.4-1c0.4-0.1,0.8-0.3,1.1-0.6c0.8-0.7,1-1.6,1.1-2.6
	c0.1-0.7,0.1-1.4,0-2.2c-0.1-0.7-0.1-1.4,0-2.1c0.1-0.4,0.1-0.9,0.1-1.4c0-1.1,0.1-2.2,0.1-3.3c0-0.5,0-1,0-1.4
	c0-0.4-0.1-0.5-0.5-0.6C23.8,72.6,23,72.6,22.5,72.5z M24.8,87.5c0.1,0.1,0.2,0.3,0.3,0.3c0.3,0.1,0.6,0.1,0.8,0.2
	c0.3,0,0.4-0.1,0.4-0.4c0-0.1-0.1-0.2-0.1-0.3c-0.1-0.3-0.1-0.6-0.2-0.9c0-0.1-0.1-0.3-0.2-0.5C25.4,86.4,25.1,86.9,24.8,87.5z
	 M26.3,74.2C26.3,74.2,26.3,74.2,26.3,74.2C26.3,74.2,26.3,74.2,26.3,74.2c0,0.3-0.1,0.6,0.2,0.6c0.3,0,0.2-0.3,0.3-0.5
	c0.1-0.7,0.1-1.3,0.5-1.9c0-0.1,0-0.3-0.1-0.3c-0.1-0.1-0.3-0.2-0.5-0.3c-0.2-0.1-0.3,0.1-0.4,0.3C26.3,72.8,26.3,73.5,26.3,74.2z
	 M32.9,71.6c-0.3,0.1-0.6,0.1-0.8,0.2c-0.1,0-0.3,0.2-0.3,0.3c0,0.1,0.1,0.2,0.2,0.3c0.2,0.2,0.4,0.3,0.6,0.5
	c0.1,0.1,0.2,0.2,0.3,0.3c0.2,0.1,0.3,0,0.4-0.2c0-0.3,0.1-0.6,0.1-0.9C33.5,71.8,33.2,71.6,32.9,71.6z M19.2,71.6
	c0,0-0.1-0.1-0.1-0.1c0,0-0.1,0.1-0.1,0.1c0,0,0.1,0.1,0.1,0.1C19.1,71.7,19.2,71.7,19.2,71.6z"/>
<path d="M85,41c0.1-0.2,0.1-0.3,0.2-0.5c0.2-0.7,0.4-1.3,0.7-2c0.1-0.3,0.3-0.7,0.5-1c0.2-0.3,0.4-0.2,0.6,0
	c0.1,0.1,0.2,0.3,0.2,0.5c0,0.5,0.1,1,0,1.5c-0.1,0.6-0.3,1.2-0.4,1.8c-0.1,0.7-0.1,1.4-0.2,2.2c-0.1,0.5-0.1,1-0.2,1.5
	c0,0.2-0.1,0.4-0.1,0.6c0,0.3-0.2,0.6-0.5,0.7c-0.3,0.1-0.5-0.1-0.7-0.4c-0.1-0.2-0.2-0.3-0.3-0.5c-0.2-0.5-0.6-0.8-1-1.1
	c-0.7-0.4-1.4-0.4-2.1-0.2c-0.5,0.2-1,0.3-1.5,0.5c-0.9,0.3-1.5,1-2,1.7c-0.5,0.6-0.9,1.2-1.3,1.9c-0.4,0.7-0.7,1.4-0.7,2.2
	c0,0.4,0.1,0.8,0.3,1.1c0.7,0.9,1.4,1.6,2.3,2.2c0.3,0.2,0.6,0.3,0.9,0.4c1.5,0.3,2.7-0.1,3.8-1.3c0,0,0.1-0.1,0.1-0.1
	c0,0,0,0,0-0.1c-0.3-0.1-0.6-0.1-0.8-0.2c-0.4-0.1-0.9-0.1-1.3-0.3c-0.7-0.2-1.3-0.4-1.9-0.6c-0.1,0-0.2-0.1-0.3-0.1
	C79.1,51,79,50.8,79,50.5c0-0.3,0.2-0.4,0.4-0.5c0.2-0.1,0.4-0.2,0.6-0.2c0.8-0.1,1.7-0.2,2.5-0.3c0.9-0.1,1.9,0,2.8-0.1
	c0.5,0,0.9,0,1.3-0.2c0.5-0.1,1-0.1,1.6-0.1c0.5,0,1.1,0.1,1.6,0.2c0.3,0.1,0.5,0.3,0.5,0.7c0.1,0.3-0.1,0.5-0.4,0.7
	c-0.4,0.2-0.9,0.5-1.3,0.7c-0.2,0.1-0.5,0.3-0.6,0.6c-0.3,0.6-0.4,1.2-0.6,1.7c-0.1,0.2-0.2,0.5-0.3,0.7c-0.2,0.3-0.5,0.7-0.8,1
	c-0.2,0.3-0.5,0.5-0.8,0.7c-0.4,0.3-0.9,0.5-1.4,0.7c-0.4,0.1-0.7,0.2-1.1,0.3c-0.3,0.1-0.6,0.1-0.9,0.1c-1,0.3-2.1,0.3-3.1,0.2
	c-0.6-0.1-1.1-0.1-1.7-0.3c-0.3-0.1-0.6-0.2-0.9-0.3c-0.8-0.3-1.5-0.6-2.2-1.1c-0.4-0.3-0.8-0.7-1-1.2c-0.5-1-0.9-2.1-1.1-3.2
	c-0.3-1.5,0-2.9,0.7-4.2c0.6-1,1.3-2,2.1-2.8c0.8-0.7,1.6-1.4,2.4-2c0.8-0.7,1.8-1.2,2.8-1.7c1-0.5,2.1-0.5,3.2-0.2
	C83.9,40.8,84.4,40.9,85,41z M85.6,43.6c0.1-0.4,0.1-0.5-0.1-0.5c-0.4,0-0.6-0.2-0.9-0.4c-0.2-0.2-0.5-0.3-0.8-0.3
	c-0.3-0.1-0.7-0.2-1-0.2c-0.5-0.1-1-0.2-1.4-0.1c-1.1,0.2-2.1,0.5-3,1.3c-0.1,0.1-0.2,0.2-0.3,0.2c-0.7,0.5-1.4,1.1-2,1.6
	c-0.7,0.6-1.2,1.3-1.7,2c-0.4,0.5-0.8,1.1-0.9,1.7c-0.2,1.1-0.4,2.1,0.1,3.2c0.1,0.1,0.1,0.3,0.1,0.4c0.2,0.9,0.7,1.6,1.4,2.1
	c0.5,0.4,1,0.6,1.6,0.8c1.1,0.5,2.3,0.8,3.6,0.7c0.2,0,0.4,0,0.6,0c0.4,0,0.8,0,1.3-0.1c0.4,0,0.7-0.2,1.1-0.2
	c1.3-0.2,2.4-0.9,3.1-2.1c0.1-0.1,0.1-0.2,0.1-0.3c0.1-0.6,0.5-1.2,0.5-1.9c0-0.2,0.1-0.4,0.2-0.6c-0.3-0.1-1.4-0.1-1.8,0
	c-0.1,0-0.2,0.1-0.3,0.2c0.1,0.1,0.2,0.3,0.2,0.4c0.3,0.5,0.4,1,0,1.4c-0.2,0.2-0.3,0.5-0.5,0.7c-0.5,0.5-1,0.9-1.7,1.2
	c-0.3,0.1-0.6,0.2-0.9,0.4c-0.2,0.1-0.3,0.1-0.5,0.2c-1.4,0.3-2.6-0.1-3.7-1c-0.6-0.5-1.1-1.1-1.7-1.7c-1.1-1.3-1.2-2.7-0.6-4.2
	c0.3-0.8,0.7-1.5,1.2-2.2c0.5-0.7,1.1-1.4,1.7-2c0.4-0.3,0.7-0.6,1.2-0.8c0.6-0.3,1.2-0.5,1.8-0.7c0.5-0.1,1-0.2,1.5-0.3
	c0.5,0,1,0,1.4,0.3C84.7,43.1,85.1,43.3,85.6,43.6z"/>
<path d="M65.6,50.1c0.1-0.1,0.1-0.2,0.1-0.3c0.4-1.9,0.9-3.7,1.5-5.5c0.2-0.5,0.1-0.6-0.4-0.7c-1-0.2-1.9-0.4-2.9-0.6
	c-0.3-0.1-0.6-0.1-0.8-0.4c-0.3-0.5-0.1-1.1,0.5-1.2c0.6-0.1,1.2-0.2,1.8-0.2c0.7,0,1.4-0.2,2.1-0.4c0.9-0.2,1.7-0.5,2.6-0.7
	c0.4-0.1,0.8-0.1,1.3-0.1c0.6-0.1,1.1,0.5,0.7,1.2c-0.2,0.5-0.5,1-0.7,1.4c-0.4,0.7-0.7,1.4-1.1,2.1c-0.7,1.3-1,2.7-1.5,4.1
	c-0.2,0.4-0.2,0.9-0.4,1.4c-0.3,0.8-0.6,1.7-0.9,2.5c-0.4,1-0.7,2-1.1,3c-0.1,0.3-0.2,0.6-0.3,0.9c-0.1,0.2-0.2,0.4-0.5,0.4
	c-0.2,0-0.4-0.1-0.6-0.3c-0.3-0.6-0.7-1.1-1-1.7c-0.2-0.4-0.4-0.9-0.6-1.3c-0.5-1.2-0.9-2.4-1.4-3.5c-0.2-0.6-0.5-1.2-0.8-1.7
	c-0.2-0.5-0.6-0.9-1.1-1.3c-0.2,0.5-0.3,1-0.3,1.5c0.1,0.7,0,1.4-0.1,2.2c-0.3,1.6-0.3,3.2,0,4.8c0.1,0.4,0.3,0.7,0.7,0.8
	c0.3,0.1,0.5,0.2,0.8,0.3c0.3,0.1,0.4,0.4,0.4,0.7c0,0.3-0.2,0.4-0.6,0.4c-0.6,0-1.3,0-1.9,0c-0.7,0-1.3,0.1-2,0.3
	c-1,0.2-2,0.3-3,0.4c-0.2,0-0.4,0-0.6-0.1c-0.3-0.2-0.4-0.5-0.4-0.8c0.1-0.3,0.2-0.4,0.6-0.5c0.4-0.1,0.8-0.2,1.2-0.3
	c1-0.4,1.6-1,1.6-2.1c0.1-1,0.2-2.1,0.3-3.1c0-0.4,0-0.9,0-1.3c0-0.6,0-1.3,0.1-1.9c0-0.6,0.1-1.2,0.1-1.8c0-0.9-0.1-1.7-0.1-2.6
	c0-0.4-0.2-0.6-0.5-0.7c-0.3-0.1-0.7-0.2-1-0.3c-0.4-0.1-0.7-0.3-0.9-0.7c-0.2-0.4-0.1-0.8,0.3-0.9c0.4-0.1,0.8-0.2,1.2-0.1
	c1,0.1,2.1,0.2,3.1,0.4c0.7,0.1,1.1,0.6,1.3,1.2c0.5,1,1.1,1.9,1.8,2.7c0.4,0.5,0.8,1.1,1.1,1.6c0.4,0.5,0.7,1.1,1,1.7
	c0.2,0.3,0.4,0.7,0.6,1C65.5,50,65.5,50.1,65.6,50.1z M65.4,55.3c0,0,0.1,0,0.1,0c0.1-0.1,0.1-0.2,0.2-0.4c0.1-0.4,0.3-0.7,0.4-1.1
	c0.5-1.3,1.1-2.6,1.4-3.9c0.2-0.8,0.5-1.7,0.7-2.5c0.1-0.4,0.3-0.8,0.5-1.3c0.4-1.2,0.9-2.2,1.5-3.3c0.1-0.3,0.2-0.5,0.4-0.8
	c-0.6-0.1-2,0.2-2.4,0.5c0,0,0,0.1,0,0.1c0,0.1,0.1,0.1,0.2,0.2c0.3,0.4,0.6,0.8,0.2,1.3c0,0.1-0.1,0.2-0.1,0.2
	c-0.3,0.9-0.5,1.9-0.9,2.8c-0.4,1.1-0.6,2.3-0.9,3.4c-0.2,0.8-0.3,1.5-0.5,2.3c-0.1,0.2-0.2,0.4-0.5,0.4c-0.3,0-0.4-0.1-0.5-0.3
	c-0.1-0.1-0.1-0.3-0.1-0.4c-0.2-1.4-0.9-2.5-1.5-3.7c-0.7-1.2-1.4-2.3-2.3-3.3c-0.4-0.5-0.8-1-1.1-1.6c-0.3-0.7-0.8-0.8-1.4-0.9
	c-0.2,0-0.3,0.1-0.3,0.3c0,0.2,0,0.4,0,0.6c0,0.8,0,1.5,0,2.3c0,0.6,0,1.2,0,1.8c-0.1,1.2-0.3,2.4-0.1,3.6c0,0.1,0,0.2,0,0.3
	c-0.1,1.3-0.2,2.5-0.3,3.8c0,0.3-0.1,0.7-0.3,1c-0.1,0.1-0.1,0.2-0.1,0.4c0.5-0.1,1,0,1.3-0.2c-0.1-0.8-0.3-1.7-0.4-2.5
	c0-0.3-0.1-0.7,0-1c0.1-1.1,0.3-2.3,0.4-3.4c0-0.3,0.1-0.6,0-0.9c-0.2-1.1,0.1-2.1,0.4-3c0.1-0.5,0.6-0.6,1-0.2
	c0.2,0.2,0.4,0.5,0.7,0.7c1.1,0.9,1.6,2.2,2.1,3.4c0.4,1,0.8,2.1,1.2,3.1c0,0.1,0.1,0.2,0.1,0.2c0.2,0.4,0.4,0.9,0.6,1.3
	C65.1,54.8,65.3,55,65.4,55.3z"/>
<path d="M30.3,8.7c0.5,0,1,0,1.6,0c0.4,0,0.8,0.1,1.2,0.1c0.5,0,1,0.1,1.5,0.1c0.3,0,0.5,0,0.8,0.1C36,9.1,36.5,9.2,37,9.2
	c0.5,0.1,1.1,0.1,1.6,0.1c0.6,0,1.3-0.2,1.9-0.3c0.2,0,0.3-0.1,0.5-0.2c0.5-0.3,1,0,1.1,0.5c0,0.2,0,0.4,0,0.7
	c-0.1,0.9-0.3,1.8-0.4,2.8c-0.1,0.7-0.2,1.4-0.4,2.1c-0.1,0.2,0,0.5-0.1,0.7c0,0.2,0,0.5,0,0.7c0.1,0.7-0.3,1-0.8,1.3
	c-0.2,0.1-0.3,0-0.5-0.1c-0.3-0.3-0.3-0.6-0.3-1c0.1-1.2,0.2-2.4,0.3-3.6c0-0.9,0-0.8-0.8-0.9c-0.6-0.1-1.1,0.1-1.7,0.1
	c-0.7,0.1-1,0.4-1,1.1c-0.1,0.8-0.2,1.7-0.2,2.5c0.1,0.8,0,1.7,0,2.5c-0.1,1.4-0.2,2.7,0,4.1c0.1,0.7,0.1,1.5,0.1,2.2
	c0.1,1-0.1,2-0.1,3c0,0.5,0.1,1,0.5,1.4c0.2,0.2,0.3,0.5,0.2,0.8c0,0.3-0.2,0.4-0.4,0.3c-0.2,0-0.4-0.1-0.6-0.2
	c-0.6-0.2-1.2-0.3-1.9-0.2c-0.7,0.1-1.4,0.1-2.1,0.1c-0.1,0-0.3,0-0.4-0.1c-0.2-0.1-0.4-0.3-0.4-0.6c0-0.3,0.1-0.5,0.3-0.6
	C32,28.4,32.4,28,33,28c0.3,0,0.4-0.3,0.5-0.6c0.1-1.1,0.3-2.1,0.4-3.2c0-0.5-0.1-1.1-0.1-1.7c0-0.5,0-1,0.1-1.5c0-0.2,0-0.4,0-0.6
	c-0.1-0.8-0.2-1.6-0.1-2.5c0.1-0.9,0.1-1.9,0.2-2.8c0-0.8,0.1-1.6,0.2-2.4c0-0.1,0-0.3,0-0.4c0-0.4-0.1-0.4-0.5-0.5
	c-0.9-0.1-1.7-0.2-2.6-0.1c-0.6,0.1-1.1,0.3-1.5,0.7c-0.3,0.3-0.6,0.5-0.8,0.7c-0.2,0.2-0.3,0.3-0.4,0.5c-0.2,0.4-0.4,0.6-0.7,0.4
	c-0.3-0.2-0.5-0.7-0.4-1.1c0.2-0.3,0.4-0.7,0.6-1c0.5-0.7,0.8-1.5,0.9-2.4c0-0.5,0.1-0.7,0.7-0.8C29.6,8.7,30,8.7,30.3,8.7
	C30.3,8.6,30.3,8.7,30.3,8.7z M35.2,15.4c0,0-0.1,0-0.1,0c0,0.1-0.1,0.1-0.1,0.2c0,0.4-0.1,0.8-0.1,1.1c0,0.4,0,0.9,0,1.3
	c0,0.5-0.1,0.9-0.1,1.4c0.1,1,0.2,2,0.1,3c0,0.1,0,0.2,0,0.4c0.2,1.6,0,3.2-0.3,4.7c0,0.1,0,0.2,0,0.4c0,0.3,0.1,0.4,0.3,0.4
	c0.2,0,0.3-0.1,0.4-0.4c0-0.1,0-0.2,0-0.3c0-0.6,0.1-1.3,0.1-1.9c0-0.2,0-0.4,0-0.6c0-0.9-0.1-1.8-0.2-2.6c0-0.2,0-0.5,0-0.7
	c-0.2-0.8-0.1-1.6-0.1-2.4c0-1.2,0.1-2.4,0.1-3.6C35.2,15.8,35.2,15.6,35.2,15.4z M35.3,11.7c0.2-0.3,0.5-0.7,0.7-1
	c-0.3-0.1-0.6-0.2-1-0.2C35.2,10.9,35.2,11.3,35.3,11.7z M40.6,10.4c-0.1,0.1-0.1,0.2-0.1,0.3c0,0.1,0.1,0.2,0.2,0.2
	c0,0,0.1-0.1,0.2-0.1C40.8,10.7,40.7,10.6,40.6,10.4z"/>
<path d="M41.8,51.6c0.1-0.1,0.2-0.1,0.2-0.2c0.2-0.4,0.4-0.8,0.6-1.2c0.4-0.7,0.7-1.5,1.1-2.2c0.2-0.5,0.5-1,0.8-1.5
	c0.1-0.3,0.1-0.4-0.2-0.5c-0.4-0.1-0.9-0.3-1.3-0.3c-0.3-0.1-0.5-0.2-0.6-0.5c-0.1-0.3,0.1-0.7,0.4-0.8c0.4-0.1,0.8-0.2,1.2-0.2
	c1.2-0.1,2.5-0.3,3.7-0.4c1-0.1,1.9-0.3,2.9-0.2c0.6,0.1,0.9,0.4,0.9,0.9c0,0.2-0.1,0.4-0.3,0.6c-0.5,0.4-1,0.8-1.5,1.3
	c-0.7,0.8-1.4,1.6-2.2,2.4c-0.3,0.3-0.5,0.6-0.8,0.9c-0.3,0.3-0.5,0.6-0.8,0.9c-0.3,0.4-0.6,0.7-0.9,1.1c-0.9,1.3-1.8,2.6-2.6,3.9
	c-0.4,0.7-0.9,1.3-1.3,2c-0.1,0.2-0.4,0.4-0.6,0.3c-0.3,0-0.4-0.3-0.4-0.5c-0.3-1.2-0.5-2.4-0.8-3.6c-0.2-1-0.4-1.9-0.6-2.9
	c-0.2-1.1-0.4-2.1-0.7-3.2c-0.1-0.3-0.2-0.6-0.4-0.9c-0.4-0.7-0.8-1.3-1.2-2c-0.1-0.1-0.1-0.2-0.2-0.3c-0.3-0.6-0.2-1,0.5-1.2
	c0.2-0.1,0.5-0.1,0.7-0.2c0.3-0.1,0.6-0.1,0.9-0.2c0.5-0.2,0.9-0.3,1.4,0c0.2,0.1,0.4,0.1,0.6,0.1c0.3,0,0.5,0,0.8,0
	c0.4,0,0.5,0.2,0.6,0.6c0.1,0.3-0.1,0.6-0.4,0.8c-0.2,0.1-0.3,0.1-0.5,0.2c-0.2,0.1-0.4,0.2-0.6,0.3C40,45,39.9,45.2,40,45.5
	c0.1,0.5,0.2,0.9,0.3,1.4c0.3,1.5,0.7,2.9,1.4,4.3C41.6,51.3,41.7,51.4,41.8,51.6z M49.2,45.2c-0.2,0-0.3-0.1-0.5-0.1
	c-0.9-0.1-1.7,0.1-2.5,0.2c-0.3,0-0.4,0.2-0.4,0.4c-0.1,0.6-0.3,1.1-0.5,1.6c-0.2,0.3-0.4,0.7-0.5,1c-0.5,1-0.9,2.1-1.6,3.1
	c-0.1,0.1-0.1,0.3-0.2,0.4c-0.1,0.5-0.4,1-0.8,1.4c-0.4,0.5-0.7,0.4-1-0.1c-0.1-0.3-0.3-0.7-0.4-1c-0.5-1.1-1-2.3-1.3-3.5
	c-0.2-0.7-0.3-1.3-0.4-2c-0.1-0.3-0.2-0.5-0.2-0.8c-0.1-0.6-0.3-1.1-0.2-1.7c0,0,0-0.1-0.1-0.1c-0.4,0.1-0.7,0.3-1.2,0.5
	c0.1,0.2,0.2,0.3,0.3,0.5c0.4,0.6,0.8,1.2,1,2c0.3,1.1,0.6,2.2,0.8,3.3c0.3,1.4,0.8,2.8,0.9,4.2c0,0.3,0.1,0.7,0.4,1
	c0.1-0.1,0.2-0.2,0.3-0.3c0.3-0.5,0.6-0.9,0.9-1.4c0.3-0.4,0.5-0.8,0.8-1.3c1-1.4,2-2.8,3.2-4c0.8-0.9,1.6-1.8,2.4-2.6
	C48.8,45.7,49,45.5,49.2,45.2z"/>
<path d="M28.5,45.5c-0.8,0.1-1.4,0.1-2,0.2c-0.2,0-0.4,0-0.6-0.1c-0.4-0.2-0.5-0.7-0.2-1c0.2-0.2,0.4-0.3,0.7-0.4
	c1.2-0.4,2.4-0.4,3.6-0.5c1,0,2-0.1,3-0.2c0.1,0,0.2,0,0.3-0.1c0.5-0.1,1,0.3,0.9,0.8c0,0.3-0.1,0.5-0.2,0.7
	c-0.1,0.2-0.2,0.3-0.3,0.5c-0.6,0.6-0.8,1.4-0.7,2.2c0.1,1,0.2,2.1-0.1,3.1c-0.1,0.4-0.1,0.9-0.1,1.3c0,0.3-0.1,0.5-0.1,0.8
	c0,0.8,0.1,1.5,0.8,2c0.3,0.2,0.7,0.4,1,0.6c0.2,0.1,0.4,0.2,0.5,0.5c0.2,0.5-0.1,0.8-0.6,0.8c-1.1-0.2-2.2,0.1-3.3,0.3
	c-0.7,0.1-1.5,0.2-2.3,0.3c-0.9,0.2-1.8,0.3-2.6,0.6c-0.5,0.2-0.8,0.1-1-0.3c-0.1-0.4,0.1-0.8,0.6-1c0.7-0.2,1.5-0.4,2.2-0.7
	c0.3-0.1,0.6-0.2,0.9-0.3c0.7-0.3,1.1-1,1.1-1.8c0.1-0.7,0.1-1.3,0.2-2c0-0.6,0-1.1,0-1.7c0-1.1,0-2.2,0-3.3c0-0.4-0.1-0.8-0.1-1.1
	c0-0.1-0.1-0.2-0.2-0.3C29.3,45.7,28.8,45.6,28.5,45.5z M31,45.2c0,0.2,0.1,0.3,0.1,0.4c0.1,0.6,0.2,1.3,0.2,1.9c0,0.5,0,1,0,1.4
	c0,0.5,0,1,0,1.5c0,0.5,0,1.1,0,1.7c0.2-0.3,0.2-0.3,0.2-0.6c0-0.3,0-0.7,0.1-1c0.2-0.5,0.2-1,0.2-1.5c0-0.5-0.1-1.1-0.1-1.6
	c0-0.4,0-0.8,0.1-1.2c0.1-0.4,0.2-0.7,0.3-1.1C31.7,45,31.4,45,31,45.2z M30.8,55.9c0.5,0.2,0.9,0,1.1-0.3c-0.1-0.3-0.2-0.7-0.3-1
	c-0.1-0.3-0.1-0.7-0.5-0.9C31.1,54.4,31,55.1,30.8,55.9z"/>
<path d="M52.9,49.2c0,0.2,0,0.4,0,0.5c-0.2,0.8-0.2,1.6-0.2,2.5c0,0.4,0,0.8,0,1.2c0,0.4,0.1,0.8,0.3,1.1c0.2,0.4,0.6,0.7,1.1,0.8
	c0.2,0,0.4,0.1,0.5,0.1c0.3,0.1,0.5,0.2,0.5,0.6c0,0.3-0.1,0.6-0.4,0.7c-0.2,0.1-0.5,0.1-0.7,0.2c-0.7,0.1-1.3,0.1-2,0.2
	c-1.2,0.1-2.4,0.2-3.6,0.3c-0.2,0-0.5,0.1-0.7,0.1c-0.3,0-0.5-0.1-0.6-0.4c-0.1-0.3,0-0.5,0.2-0.7c0.1-0.1,0.1-0.1,0.2-0.1
	c0.6-0.2,1.3-0.4,1.9-0.5c0.6-0.1,0.7-0.2,0.7-0.8c0-0.8,0-1.7,0-2.5c0-0.3,0-0.7-0.1-1c-0.1-0.5-0.5-0.8-1-1
	c-0.3-0.1-0.5-0.1-0.8-0.1c-0.2-0.1-0.4-0.2-0.5-0.5c0-0.3,0.1-0.6,0.3-0.8C48,49,48.1,49,48.2,49c1.1-0.4,2.1-0.7,3.2-1
	c0.2,0,0.4-0.1,0.7-0.1c0.5,0,0.6,0.2,0.7,0.6C52.8,48.8,52.8,49,52.9,49.2z M51.8,49.3c-0.5,0-1.1,0.2-1.5,0.4
	c0.7,0.8,0.8,1.7,0.8,2.7c0.1,0.9,0.1,1.8,0.1,2.7c0,0.8,0.3,0.8,0.8,0.7c0.1,0,0.1-0.1,0.3-0.1c-0.1-0.2-0.2-0.4-0.2-0.6
	c-0.3-0.6-0.4-1.3-0.4-2c0-0.6,0-1.3,0-1.9c0-0.3,0-0.6,0.1-0.9C51.7,49.9,51.7,49.6,51.8,49.3z"/>
<path d="M32.5,39.8c0.1,0.6,0,1.1-0.5,1.4c-0.1,0.1-0.3,0.2-0.5,0.3c-0.7,0.1-1.3,0.1-1.9-0.2c-0.8-0.4-0.9-1.7-0.2-2.3
	c0.6-0.5,1.3-0.7,2.1-0.6c0.6,0.1,0.9,0.4,1,1.1C32.5,39.6,32.5,39.8,32.5,39.8z M30.3,39.9c0.2,0.4,0.5,0.5,0.8,0.3
	c0.1,0,0.2-0.2,0.1-0.2c0-0.1-0.2-0.2-0.2-0.2C30.7,39.8,30.5,39.9,30.3,39.9z"/>
<path d="M51.6,45.3c0-0.7,0.4-1.2,0.9-1.6c0.3-0.2,1.1,0,1.3,0.3c0.3,0.4,0.5,0.9,0.5,1.5c0,0.3-0.1,0.5-0.3,0.7
	c-0.7,0.6-1.5,0.6-2.1,0C51.6,46,51.6,45.6,51.6,45.3z M52.9,44.8c-0.2,0.1-0.3,0.3-0.2,0.5c0.1,0.2,0.3,0.2,0.7,0.1
	C53.2,45.2,53,45,52.9,44.8z"/>
</svg>
